<svg xmlns="http://www.w3.org/2000/svg" viewBox="0 0 500 500"><g id="freepik--background-simple--inject-185"><path d="M155.57,375.65c-24.3-9.95-45.67-25.34-58.85-44.92s-17.67-43.44-10-64.93c13.3-37.39,55.48-22.13,76.86-56.86,13.7-22.27,16.74-47.79,23.62-72.12s19.45-49.57,45.17-62.71c19-9.74,97.85-30.28,134.56,39C539.77,439.29,214.78,399.91,155.57,375.65Z" style="fill:#0069F0"></path><path d="M155.57,375.65c-24.3-9.95-45.67-25.34-58.85-44.92s-17.67-43.44-10-64.93c13.3-37.39,55.48-22.13,76.86-56.86,13.7-22.27,16.74-47.79,23.62-72.12s19.45-49.57,45.17-62.71c19-9.74,97.85-30.28,134.56,39C539.77,439.29,214.78,399.91,155.57,375.65Z" style="fill:#fff;opacity:0.9"></path></g><g id="freepik--Shadow--inject-185"><ellipse id="freepik--path--inject-185" cx="250" cy="415.69" rx="193.89" ry="11.32" style="fill:#f5f5f5"></ellipse></g><g id="freepik--Character--inject-185"><path d="M262.2,193.59c-.6,13.32,5.7,12.33,6.79,12.61a2.18,2.18,0,0,0,2.3-1.25,6,6,0,0,0,.46-2.76c0-8.58-8.17-24.3-9.76-24.46C263.3,182.8,262.44,188.36,262.2,193.59Z" style="fill:#263238"></path><path d="M291.74,318.54s.57,1-5.78,12.54c-10.07,18.31-61.42,36-87-26l46.58-11.63Z" style="fill:#0069F0"></path><g style="opacity:0.4"><path d="M291.74,318.54s.57,1-5.78,12.54c-10.07,18.31-61.42,36-87-26l46.58-11.63Z"></path></g><path d="M221.62,236l-2.61-.94-2.71-1c-1.83-.69-3.63-1.41-5.43-2.17-3.6-1.48-20.52-9.54-23.47-11.76l.58.55c-1.49-1.44-13.17-13.51-14.46-15.79s-2.62-4.59-3.93-6.94-2.6-4.77-3.92-7.08l-.08-.12a4.65,4.65,0,0,0-8.51,2.89c.39,2.91.95,5.65,1.59,8.44s1.42,5.55,2.31,8.32,12.89,18.91,15.08,21.56l.19.21.39.35a103.12,103.12,0,0,0,15.41,10.71c3.83,2.05,7.76,3.89,11.72,5.58q3,1.24,6,2.38c2,.76,4,1.45,6.31,2.16a9.09,9.09,0,0,0,5.8-17.23h0Z" style="fill:#0069F0"></path><path d="M221.62,236l-2.61-.94-2.71-1c-1.83-.69-3.63-1.41-5.43-2.17-3.6-1.48-20.52-9.54-23.47-11.76l.58.55c-1.49-1.44-13.17-13.51-14.46-15.79s-2.62-4.59-3.93-6.94-2.6-4.77-3.92-7.08l-.08-.12a4.65,4.65,0,0,0-8.51,2.89c.39,2.91.95,5.65,1.59,8.44s1.42,5.55,2.31,8.32,12.89,18.91,15.08,21.56l.19.21.39.35a103.12,103.12,0,0,0,15.41,10.71c3.83,2.05,7.76,3.89,11.72,5.58q3,1.24,6,2.38c2,.76,4,1.45,6.31,2.16a9.09,9.09,0,0,0,5.8-17.23h0Z" style="fill:#fff;opacity:0.1"></path><path d="M167.39,192.71l-7.69-9.29L149.33,194s5.45,6.61,13.46,5.14Z" style="fill:#ff887b"></path><path d="M147.81,185.93l-.28,4.9a4.28,4.28,0,0,0,3.11,4.37l3.38,1,5.68-12.74-7.32-1.51a4.28,4.28,0,0,0-4.56,4Z" style="fill:#ff887b"></path><path d="M213.3,246.53c-4.25,20.28-14,22.52-15.58,40.41-1.61,18.46-.54,52,83.27,32.05,1.42-10.36-2.43-18,9.41-63.68a12.71,12.71,0,0,0-9-15.56l-.47-.12c-3.59-.78-7.51-1.54-11.42-2.1a274,274,0,0,0-31.32-2.93c-4.06.07-8.06.24-11.49.57A15.17,15.17,0,0,0,213.3,246.53Z" style="fill:#0069F0"></path><path d="M213.3,246.53c-4.25,20.28-14,22.52-15.58,40.41-1.61,18.46-.54,52,83.27,32.05-1.61-12.76-2.43-18,9.41-63.68a12.71,12.71,0,0,0-9-15.56l-.47-.12c-3.59-.78-7.51-1.54-11.42-2.1a274,274,0,0,0-31.32-2.93c-4.06.07-8.06.24-11.49.57A15.17,15.17,0,0,0,213.3,246.53Z" style="fill:#fff;opacity:0.6000000000000001"></path><path d="M273.47,251.08l.23,1.73.24,1.59c.18,1,.4,2,.6,3,.45,2,.94,4,1.49,6a85.87,85.87,0,0,0,4.21,11.63,70.78,70.78,0,0,0,6.13,11.08,54.66,54.66,0,0,0,8.58,9.95l.46.42a6.5,6.5,0,0,0,3.42,1.65,82.46,82.46,0,0,0,11,.84c3.48.11,6.93.06,10.34,0,6.86-.2,13.64-.59,20.46-1.43a4.38,4.38,0,0,0,.25-8.66h0c-6.64-1.19-13.29-2.1-19.91-3.07l-9.8-1.43c-1.63-.25-3.2-.51-4.76-.79l-2.25-.45-2-.49,3.88,2.07c-4.2-4.86-10.2-28.14-10.2-28.14.12-12.61-11.65-15.66-11.21-15.52-4.76.74-11.83,5.29-11.09,10h0Z" style="fill:#0069F0"></path><path d="M273.47,251.08l.23,1.73.24,1.59c.18,1,.4,2,.6,3,.45,2,.94,4,1.49,6a85.87,85.87,0,0,0,4.21,11.63,70.78,70.78,0,0,0,6.13,11.08,54.66,54.66,0,0,0,8.58,9.95l.46.42a6.5,6.5,0,0,0,3.42,1.65,82.46,82.46,0,0,0,11,.84c3.48.11,6.93.06,10.34,0,6.86-.2,13.64-.59,20.46-1.43a4.38,4.38,0,0,0,.25-8.66h0c-6.64-1.19-13.29-2.1-19.91-3.07l-9.8-1.43c-1.63-.25-3.2-.51-4.76-.79l-2.25-.45-2-.49,3.88,2.07c-4.2-4.86-10.2-28.14-10.2-28.14.12-12.61-11.65-15.66-11.21-15.52-4.76.74-11.83,5.29-11.09,10h0Z" style="fill:#fff;opacity:0.1"></path><path d="M333.89,290.36l7.89-5.31,5.57,11.6s-6.34,3.92-12.56.55Z" style="fill:#ff887b"></path><path d="M349.54,290.46a3.47,3.47,0,0,0-3.35-1.44,5.06,5.06,0,0,0-4.06,6.87l14,37a47.28,47.28,0,0,0,4,8.82c1.92,3,4.45,5.33,6.46,8.14s3.48,6.32,2.85,9.8a214.61,214.61,0,0,1,11.36,32.22c2,7.43,3.08,15.45,6,22,.9,2,4.1,1.83,6,.44-2.54-12.35-7.92-25.6-10.78-39.36C379.83,364.29,349.54,290.46,349.54,290.46Z" style="fill:#263238"></path><path d="M351.81,287.84l.65,3.67a3.74,3.74,0,0,1-2.42,4.17l-2.72,1-5.57-11.6,6.2-.27A3.71,3.71,0,0,1,351.81,287.84Z" style="fill:#ff887b"></path><path d="M261,215.86c-.81,10.65,0,23,6.17,28.28a125.45,125.45,0,0,1-31.63,16.71c-11-9.16-5.14-15.58-5.14-15.58,10.63-4.76,10.53-12.64,8-21.22l16.32-12.23C257.4,209.49,261.29,212,261,215.86Z" style="fill:#ff887b"></path><path d="M264.68,211.81c.35-4.78-4.3-7.61-7.56-4.82l-19.49,14.62a27.43,27.43,0,0,1,1.24,14,27,27,0,0,0,12.59-1.55,27.78,27.78,0,0,0,13-9.78A102.6,102.6,0,0,1,264.68,211.81Z" style="opacity:0.2;isolation:isolate"></path><path d="M215.57,153.53a113,113,0,0,0,24,11.37,59.45,59.45,0,0,1-8.72-3.19c-1.2,4.36-5.3,11.46-7.84,15.19a16.58,16.58,0,0,0-2.09-.46A28.1,28.1,0,0,1,202.14,162c-2.22-4.32-3.15-9.88-.49-13.88a9.73,9.73,0,0,1,2.53,0C208.37,148.75,212,151.27,215.57,153.53Z" style="fill:#0069F0"></path><path d="M215.57,153.53a113,113,0,0,0,24,11.37,59.45,59.45,0,0,1-8.72-3.19c-1.2,4.36-5.3,11.46-7.84,15.19a16.58,16.58,0,0,0-2.09-.46A28.1,28.1,0,0,1,202.14,162c-2.22-4.32-3.15-9.88-.49-13.88a9.73,9.73,0,0,1,2.53,0C208.37,148.75,212,151.27,215.57,153.53Z" style="opacity:0.2"></path><path d="M215.49,182a15.85,15.85,0,0,0,8.61,13.24l.1,0c4.27,2,6.62-2.23,5.78-7.27-1-11.74-11.91-16.65-15.4-17.94a.55.55,0,0,0-.71.67A59.25,59.25,0,0,1,215.49,182Z" style="fill:#ff887b"></path><path d="M224.68,188.11a2.64,2.64,0,0,1,.26-5.07,6.31,6.31,0,0,0-1.91-3.5c-1.45-1.62-3.44-2.39-5.05-3.83.73,3.78-.5,3.77.87,10.15a6.33,6.33,0,0,0,2.61,3.72c.73.54,1.52,1.23,2.37.91S225.53,188.41,224.68,188.11Z" style="opacity:0.1"></path><path d="M251.14,178.85c2.63,10-5.51,15.6-8.43,17.61-1-.78.06-3.58.06-3.58s-5.13,8.54-13.69,6.12c-9.51-8.77-9.44-12.42-5.65-19.49a3.17,3.17,0,0,1-3.85,1,8.23,8.23,0,0,0,3.76-5.39c1.19-6.87,6-9.67,11.23-9.1-2.84-3.89-1-4.26-1-4.26s6.78,5.27,11.51,5.28S251.14,178.85,251.14,178.85Z" style="fill:#263238"></path><path d="M280.21,189.2c-2.52,18-3.12,28.63-14.07,37.1-16.48,12.79-42.61,3.21-46.1-15.29-.56-2.09-2-11.15,0-16.42,1-2.57,9.31-28.91,23.8-32.94C264.24,156,282.82,171.27,280.21,189.2Z" style="fill:#ff887b"></path><ellipse cx="251.4" cy="194.9" rx="4.2" ry="7.88" transform="matrix(0.01, -1, 1, 0.01, 54.03, 444.36)" style="opacity:0.1"></ellipse><path d="M232.7,193.77c0,2.32-2.55,4.17-5.65,4.14s-5.59-1.93-5.56-4.25,2.55-4.17,5.64-4.14S232.72,191.46,232.7,193.77Z" style="opacity:0.1"></path><path d="M314.12,194.49a17,17,0,0,1-8.22,7.09c-6,2.43-13.71,1.64-19.77-.67a33.49,33.49,0,0,0,3.09-23.73s-.89-1.68-4.35-3.39c4.08.85,8.1,1.84,12,3,4.81,1.44,9.76,3.24,13.16,6.94A16.17,16.17,0,0,1,314.12,194.49Z" style="fill:#0069F0"></path><path d="M314.12,194.49a17,17,0,0,1-8.22,7.09c-6,2.43-13.71,1.64-19.77-.67a33.49,33.49,0,0,0,3.09-23.73s-.89-1.68-4.35-3.39c4.08.85,8.1,1.84,12,3,4.81,1.44,9.76,3.24,13.16,6.94A16.17,16.17,0,0,1,314.12,194.49Z" style="opacity:0.2"></path><path d="M266.45,171.77l-.58,11.69,11.3,18.94c.5,1.23,10.17-1.16,13.43-5,2.36-2.78,5.32-22.69-8.69-30C277.58,165.09,266.45,171.77,266.45,171.77Z" style="fill:#263238"></path><path d="M246.82,187.55c-.43,1.52-1.6,2.57-2.61,2.27s-1.47-1.79-1-3.31,1.6-2.56,2.6-2.26S247.27,186,246.82,187.55Z" style="fill:#263238"></path><path d="M229.28,186.41c-.45,1.54-1.6,2.56-2.61,2.28s-1.47-1.78-1-3.33,1.6-2.56,2.61-2.26S229.74,184.93,229.28,186.41Z" style="fill:#263238"></path><path d="M254.17,185.55a1.64,1.64,0,0,1-1.49-.83,12.9,12.9,0,0,0-9.59-6.92,1.62,1.62,0,0,1-1.52-1.74v0a1.63,1.63,0,0,1,1.74-1.52h0a16.35,16.35,0,0,1,12.23,8.59,1.67,1.67,0,0,1-.64,2.23Z" style="fill:#263238"></path><path d="M225.49,182.33a1.64,1.64,0,0,0,1.55-.72c2.16-3.57,3.65-3.92,7.82-4.22a1.62,1.62,0,0,0,1.64-1.62v0a1.64,1.64,0,0,0-1.62-1.65h0c-5.27.33-7.78,1.23-10.58,5.7a1.67,1.67,0,0,0,.46,2.28Z" style="fill:#263238"></path><path d="M237,181.42c-4,6-6.1,9-11.58,13.7,2.52,2.77,4,4.29,7.68,4.18Z" style="fill:#ff5652"></path><path d="M226.64,206s6.59-1.62,25.06-2.31c-2.11,5.11-6.13,9.35-15.61,9.64S226.64,206,226.64,206Z" style="fill:#263238"></path><path d="M240.45,209.21a18.9,18.9,0,0,0-10.3,2.81,10.56,10.56,0,0,0,5.93,1.28,18.81,18.81,0,0,0,10.28-2.81A10.48,10.48,0,0,0,240.45,209.21Z" style="fill:#ff5652"></path><path d="M228.53,205.73c.42,1.29,2.3,2.32,4,2.34,7.27,1.35,15.24-2.8,16.13-4.29A177.37,177.37,0,0,0,228.53,205.73Z" style="fill:#fafafa"></path><path d="M269.6,173.88c-22.38-11-29.63-3.21-29.63-3.21s-5.75-7.71-16.54-.8c7.14-3.86,7.13-20.15,31.74-16.88,13.41,1.78,24.66,3.31,30.93,8.48C293.48,167.51,281.61,172.23,269.6,173.88Z" style="fill:#263238"></path><path d="M192.85,370.73l23.39-3.57s1.26,4.65,6.12,15.62c1.46,3.29,4.72,12.65,7.45,17,1.65,2.61-15.48,2.2-15.48,2.2Z" style="fill:#0069F0"></path><path d="M214.33,401.94l-3-3.88-1.92-2.54-2.87-3.77-2-2.57-11.77-18.46,23.39-3.56s1.26,4.65,6.12,15.62c.42.93,1,2.36,1.62,4,.29.73.6,1.51.93,2.31.54,1.4,1.14,2.87,1.74,4.29.35.79.68,1.56,1,2.31a39.54,39.54,0,0,0,2.12,4C231.46,402.35,214.33,401.94,214.33,401.94Z" style="fill:#fff;opacity:0.7000000000000001"></path><path d="M320.91,371.56l-15.66,17c-4.11-3.53-12.81-10.45-15.9-15l-50.84-28.83c-3.72,1.37-8.24,3.59-11.9,5.11-20,8.26-4.62,5.57-6.69,28.42l-19.2,3c-6.24-6.63-15.81-16.5-17.08-25.5,0,0,2.17-6.64,9.62-18.3,4.75-7.45,9.39-12.93,14.89-19.85l27.85.94v-.18l45,.6c3.29,18.8,24.67,40.2,24.67,40.2Z" style="fill:#0069F0"></path><path d="M281.63,321.82a36,36,0,0,1-1.07-11l-18.85,2.46a161.67,161.67,0,0,1-47.66-.87L200.48,309l5.88,10.83h0a161.6,161.6,0,0,0,62.73,3.73Z" style="fill:#263238"></path><path d="M246,242.45c-4.38,13.18-6,22-5.53,35.86-22.62,12.75-26.46,38.63-26.36,38.22-7.77-5.91-14.68-9.75-16.33-19.37s1.13-23.26,6.49-31.42c9.34-14.22,19.12-28.51,33.51-37.58A16.83,16.83,0,0,0,246,242.45Z" style="fill:#0069F0"></path><path d="M246,242.45c-4.38,13.18-6,22-5.53,35.86-22.32,12.47-26.46,38.63-26.36,38.22-7.77-5.91-14.68-9.75-16.33-19.37s1.13-23.26,6.49-31.42c9.34-14.22,19.12-28.51,33.51-37.58A16.83,16.83,0,0,0,246,242.45Z" style="fill:#fff;opacity:0.7000000000000001"></path><path d="M272.78,239.51l-2.26-1.22a251.8,251.8,0,0,0,16,71.42c-4.69,4-10.6,8.18-16.76,8.63-6.62-14.82-22.34-31.25-36.36-39.42-.73-12.32.62-19.61,4.79-31.23C241.26,239.08,263.72,238.19,272.78,239.51Z" style="fill:#0069F0"></path><path d="M272.78,239.51l-2.26-1.22a251.8,251.8,0,0,0,16,71.42c-4.69,4-10.6,8.18-16.76,8.63-6.62-14.82-22.34-31.25-36.36-39.42-.73-12.32.62-19.61,4.79-31.23C241.26,239.08,263.72,238.19,272.78,239.51Z" style="fill:#fff;opacity:0.7000000000000001"></path><path d="M224.83,264.12c4.95-5.43,8.61-9.2,15-12.87,1.23-.7,9.53,11.4,11.67,15.69,8.14-7.91,12.81-18.78,14.37-30,.52-3.75-3.54-7.38-5.85-10.37-8-1.72-13.41-1.81-21.2.81C235.81,228.36,221.47,244.76,224.83,264.12Z" style="fill:#0069F0"></path><path d="M224.83,264.12c4.95-5.43,8.61-9.2,15-12.87,0,0,9.53,11.4,11.67,15.69,8.14-7.91,12.81-18.78,14.37-30,.52-3.75-3.54-7.38-5.85-10.37-8-1.72-13.41-1.81-21.2.81C235.81,228.36,221.47,244.76,224.83,264.12Z" style="fill:#fff;opacity:0.9"></path><path d="M237.19,232.94c-9.44,6.63-13.78,10.07-26.43,28.4-8.43,12.21-10.9,17.33-12.7,20.06a82.77,82.77,0,0,1,22.63-45.65c1.72-.35,3.44-1.36,5.18-1.68s3.52-.51,5.31-.69C232.59,233.24,235.79,233.12,237.19,232.94Z" style="fill:#0069F0"></path><path d="M236.37,233c-10.11,10.88-16.61,18-30.87,36.06,3.52-7,6.8-14.69,8.3-22.34l6.29.77a9.08,9.08,0,0,0-.05-1.73c-.43-1.85-.86-3.7-1.29-5.57Z" style="fill:#0069F0"></path><path d="M236.37,233c-10.11,10.88-16.61,18-30.87,36.06,3.52-7,6.8-14.69,8.3-22.34l6.29.77a9.08,9.08,0,0,0-.05-1.73c-.43-1.85-.86-3.7-1.29-5.57Z" style="fill:#fff;opacity:0.2"></path><path d="M292,196.86a19.83,19.83,0,0,1-16.7,10.48h-.14c-5.89,0-6.33-6-2.73-11.26,7.31-12.77,22.21-12.63,26.84-12.25a.67.67,0,0,1,.46,1.12A74.35,74.35,0,0,0,292,196.86Z" style="fill:#ff887b"></path><path d="M278.35,198.93a3.3,3.3,0,0,0,2.35-5.88c1.13-2.05,4-3,4-3,2.5-1.07,5.16-.9,7.73-1.7-2.8,3.91-1.41,4.54-6.3,11.05a7.88,7.88,0,0,1-4.91,2.84c-1.11.23-2.36.6-3.15-.21S277.22,198.83,278.35,198.93Z" style="opacity:0.1"></path><path d="M275.24,303.82c-4.92-12.12-10.46-20.16-13-33s-2.49-26.49,2.38-38.64a74,74,0,0,1,12,12.57c-3.44,3.45-7.8,3.63-9.21,8.3a28.23,28.23,0,0,1,12.43,4.18C273.6,275.71,275.24,303.82,275.24,303.82Z" style="fill:#0069F0"></path><path d="M286,264.35c6.47,23.88,12.65,50.29,0,66.73,4.48-8-.79-6.34-4.74-14.29-12.42-25-19.55-54-14.4-81.9,5,2.23,14.56,4.86,17.77,6.19C281.1,249.66,283.53,255.41,286,264.35Z" style="fill:#0069F0"></path><path d="M275.24,303.82c-4.92-12.12-10.45-20.16-13-33s-2.49-26.49,2.37-38.64a74.08,74.08,0,0,1,12,12.57c-3.44,3.46-7.8,3.63-9.21,8.3a28.15,28.15,0,0,1,12.42,4.18C273.61,275.71,275.24,303.82,275.24,303.82Z" style="fill:#fff;opacity:0.2"></path><path d="M279.22,221.26c-.83,4.58-2.42,8.27-6,9.71a1.48,1.48,0,0,1-2-1.33c-.06-1.59-.17-4.11-.28-5.71a.38.38,0,0,0-.73-.13c-.65,1.56-1.67,4-2,4.68a45.26,45.26,0,0,1-5.12,8.85c-3.85,5.24-9.36,11.43-16.27,12.49-6,.91-8.46-4.23-8.83-8.2a1.44,1.44,0,0,0-2.29-1,59.61,59.61,0,0,1-10,5.21,6.8,6.8,0,0,1-4.37.72c-2.52-.65-3.71-3.6-3.79-6.2-.06-1.87.56-3.68.72-5.49a1.47,1.47,0,0,0-2-1.48c-1.75.76-3.4,1.81-5.16,2.57-2.88,1.24-6.6,1.61-8.61-1.29a6.33,6.33,0,0,1-.5-5.92c1.58-4.07,5.37-6.17,8.55-8.81,2-1.66,4.17-3.6,5-5.92a.77.77,0,0,0-1.21-.85c-2.34,1.85-6.8,4.57-9.32,2a1.43,1.43,0,0,1,.14-2.21c7.83-5.81,15.05-17.6,17.09-24.84.28,5.91-2.76,2.28-2.86,12.17,0,3.43,3.7,6.1,3.64,12.3,0,4.41,5.1,10,9.08,4a1.48,1.48,0,0,1,1.61-.66,10.06,10.06,0,0,0,5.4-.43,1.5,1.5,0,0,1,1.68.61c1.61,2.29,6.86,2.68,8.68,2.54,2.93-.23,18.25-7.5,20.91-29.2a1.51,1.51,0,0,1,1.27-1.29c1.85-.29,2.78-1.16,2.79-.81C274.44,190.07,282.74,201.62,279.22,221.26Z" style="fill:#263238"></path><path d="M308.44,127.35a84.23,84.23,0,0,0-15.11,31.35,82.16,82.16,0,0,0-48.41-15.92c3.63-4.85,7-11.25,10.75-33.74,19.48-4.36,39.2,3.6,52.42,18.56Z" style="fill:#0069F0"></path><path d="M293.33,158.7a73.94,73.94,0,0,0-1.74,10.36c-.16,1.53-.26,3.06-.3,4.61-1.42.17-2.85.31-4.26.38h0l-34.34-5.68a79,79,0,0,1-21.33-12.85c.56-.56,7-3.81,9.66-7.6,1.35-1.93,2.65-3.44,3.91-5.14A82.16,82.16,0,0,1,293.33,158.7Z" style="fill:#0069F0"></path><path d="M279,134.06c-2.34.67-4.14,1.1-4.47,1.17v0a16.47,16.47,0,0,1,4-2.33c3.66-1.46.86-6-1.51-3.74-.34-3.17-4.8-2.24-3.71,1.58.67,2.34,1.1,4.14,1.17,4.47h0a16.47,16.47,0,0,1-2.33-4c-1.46-3.66-6-.86-3.74,1.51-3.17.34-2.25,4.8,1.58,3.71,2.26-.65,4-1.07,4.44-1.16l-.08.1a16.25,16.25,0,0,1-3.87,2.24c-3.56,1.42-1.3,5.4,1,3.57q-.2.82-.36,1.65a71.49,71.49,0,0,0-.08,7.75h0a.62.62,0,0,0,.51.68c.16,0,.38-.21.37-.37h0a72.59,72.59,0,0,1-.16-7.66c.08-.5.18-1,.28-1.48.66,2.68,4.68,1.67,3.64-2-.65-2.27-1.08-4.05-1.17-4.44l0,0a16.08,16.08,0,0,1,2.33,4c1.46,3.66,6,.86,3.74-1.51C283.76,137.43,282.83,133,279,134.06Z" style="opacity:0.2"></path><path d="M280,133.28c-2.33.66-4.14,1.09-4.47,1.17a0,0,0,0,0,0,0,17.2,17.2,0,0,1,4-2.33c3.66-1.46.86-6-1.51-3.73-.34-3.18-4.8-2.25-3.71,1.58.67,2.33,1.1,4.14,1.17,4.46l0,0a16.7,16.7,0,0,1-2.33-4c-1.46-3.66-6-.86-3.73,1.51-3.18.33-2.25,4.8,1.57,3.7,2.27-.64,4-1.07,4.44-1.16l-.07.11a17.22,17.22,0,0,1-3.87,2.24c-3.57,1.41-1.31,5.39,1,3.56-.14.55-.26,1.1-.37,1.66-.27,1.4-.46,2.82-.59,4.24s-.2,2.85-.19,4.29h0a.61.61,0,0,0,.51.68c.16,0,.38-.21.37-.37h0c-.05-1.4,0-2.82.08-4.23a40,40,0,0,1,.47-4.22c.08-.5.17-1,.28-1.48.65,2.68,4.68,1.68,3.63-2-.65-2.27-1.07-4-1.16-4.44l0,0a16.87,16.87,0,0,1,2.33,4c1.45,3.66,6,.86,3.73-1.51C284.74,136.64,283.82,132.18,280,133.28Z" style="fill:#fff;opacity:0.9"></path><path d="M293.33,158.7a73.94,73.94,0,0,0-1.74,10.36c-.16,1.53-.26,3.06-.3,4.61-1.42.17-2.85.31-4.26.38h0l-24.74-10.38c-7.7-3.12-21.37-6.45-30.93-8.15.56-.56,7-3.81,9.66-7.6,1.35-1.93,2.65-3.44,3.91-5.14C253.14,138,283.13,151.63,293.33,158.7Z" style="fill:#263238"></path><polygon points="267.75 143.98 259.42 166.25 245.95 161.28 254.28 139.01 267.75 143.98" style="fill:#fff;opacity:0.9"></polygon><polygon points="264.97 145.67 258.32 163.4 248.6 159.68 255.25 141.95 264.97 145.67" style="fill:#263238"></polygon><path d="M254.9,153.42l-4.58-1.69a1.14,1.14,0,0,1-.68-1.46h0a1.14,1.14,0,0,1,1.47-.67l4.58,1.69a1.13,1.13,0,0,1,.67,1.46h0A1.13,1.13,0,0,1,254.9,153.42Z" style="fill:#fff;opacity:0.9"></path><path d="M314.12,194.49a16.17,16.17,0,0,0-4.07-10.74c-3.4-3.7-8.35-5.5-13.16-6.94-3.92-1.18-7.94-2.17-12-3a21.49,21.49,0,0,0-3.1-1.27h0l-34.3-5.69h0c-2.68-.55-5.34-1.17-7.91-1.93a113,113,0,0,1-24-11.37c-3.58-2.26-7.2-4.78-11.39-5.36a9.73,9.73,0,0,0-2.53,0,3.41,3.41,0,0,1,.3-.44c3.58-4.79,11-4.77,16.36-2.14,3.52,1.72,6.51,4.28,9.54,6.8,1.58,1.31,3.19,2.62,4.88,3.78,9.78,6.76,22.07,8.57,33.92,9.53,6.54.54,13.19.88,19.68,1.83a67.18,67.18,0,0,1,15.37,3.89c6.78,2.7,13.57,7.86,14.3,15.13A13.2,13.2,0,0,1,314.12,194.49Z" style="fill:#0069F0"></path><path d="M314.12,194.49a16.17,16.17,0,0,0-4.07-10.74c-3.4-3.7-8.35-5.5-13.16-6.94-3.92-1.18-7.94-2.17-12-3a21.49,21.49,0,0,0-3.1-1.27h0l-34.3-5.69h0c-2.68-.55-5.34-1.17-7.91-1.93a113,113,0,0,1-24-11.37c-3.58-2.26-7.2-4.78-11.39-5.36a9.73,9.73,0,0,0-2.53,0,3.41,3.41,0,0,1,.3-.44c3.58-4.79,11-4.77,16.36-2.14,3.52,1.72,6.51,4.28,9.54,6.8,1.58,1.31,3.19,2.62,4.88,3.78,9.78,6.76,22.07,8.57,33.92,9.53,6.54.54,13.19.88,19.68,1.83a67.18,67.18,0,0,1,15.37,3.89c6.78,2.7,13.57,7.86,14.3,15.13A13.2,13.2,0,0,1,314.12,194.49Z" style="fill:#fff;opacity:0.2"></path><path d="M228.91,398.24a37.8,37.8,0,0,1,8.34,19.18c-2.5.44-4.86.35-7.35.79-.59-1.57-1.28-2.57-1.87-4.14-11.43,5-24.16,4.23-35.52-.92,7.84-.17,17.69-5.41,20.53-12.72C219.43,400.31,222.51,398.36,228.91,398.24Z" style="fill:#263238"></path><path d="M337.05,390.63l-6.41,8.64-7.27-2.2-3.65-1.75-4.11-2q-2-1-4-2.1c-1.12-.64-2.23-1.32-3.31-2l-.07,0a61.73,61.73,0,0,1-6.22-4.69l13.84-14.87,6.07,5.95,2.54,2.48,6.39,6.28,2.55,2.49Z" style="fill:#0069F0"></path><g style="opacity:0.7000000000000001"><path d="M337.06,390.63l-6.42,8.64-7.27-2.2-.91-.43-.15-.08-2.63-1.26-4.07-1.95q-.57-.27-1.14-.57l-.05,0c-.82-.41-1.64-.84-2.44-1.3l-.13-.07a1.71,1.71,0,0,1-.23-.13c-1.13-.64-2.24-1.32-3.32-2l-.06,0a60.75,60.75,0,0,1-6.23-4.69l13.84-14.87,6.07,5.95,1.94,1.89.49.48.19.2,1.37,1.33.23.24.14.14,4.24,4.16.08.07.25.24,1.48,1.45,0,0,1,1Z" style="fill:#fff"></path></g><path d="M328.6,399.07c3,6.63,8.92,11.39,15.06,15.28,1.6-2.17,2.8-2.11,4.39-4.28-1.22-1.3-2.23-3.61-3.45-4.91,10.11-8.54,21.81-18.57,15.13-31.44-3.84,7.39-15.2,16.35-23.5,15.63A33.18,33.18,0,0,0,328.6,399.07Z" style="fill:#263238"></path><rect x="226.65" y="312.88" width="19.76" height="14.36" transform="translate(3.17 -2.32) rotate(0.57)" style="fill:#fff;opacity:0.9"></rect><rect x="229.06" y="314.23" width="14.92" height="11.37" transform="translate(3.17 -2.32) rotate(0.57)" style="fill:#263238"></rect><path d="M233.36,320.63l-4.88-.05a1.14,1.14,0,0,1-1.13-1.15h0a1.15,1.15,0,0,1,1.15-1.13l4.89.05a1.14,1.14,0,0,1,1.12,1.15h0A1.14,1.14,0,0,1,233.36,320.63Z" style="fill:#0069F0"></path><path d="M233.36,320.63l-4.88-.05a1.14,1.14,0,0,1-1.13-1.15h0a1.15,1.15,0,0,1,1.15-1.13l4.89.05a1.14,1.14,0,0,1,1.12,1.15h0A1.14,1.14,0,0,1,233.36,320.63Z" style="fill:#fff;opacity:0.9"></path><path d="M244.23,267.16a4.82,4.82,0,1,1-9.63-.1V267a4.83,4.83,0,0,1,4.86-4.7,6.6,6.6,0,0,1,.79.08A4.8,4.8,0,0,1,244.23,267.16Z" style="fill:#0069F0"></path><path d="M244.23,267.16a4.82,4.82,0,1,1-9.63-.1V267a4.83,4.83,0,0,1,4.86-4.7,6.6,6.6,0,0,1,.79.08A4.8,4.8,0,0,1,244.23,267.16Z" style="fill:#fff;opacity:0.4"></path><path d="M240.25,262.37a4.82,4.82,0,0,1-4.86,4.7,3.42,3.42,0,0,1-.79-.08,4.83,4.83,0,0,1,4.86-4.7A6.6,6.6,0,0,1,240.25,262.37Z" style="fill:#fff;opacity:0.8"></path><path d="M239.15,288.42a2.84,2.84,0,1,1-5.68-.05v0a2.85,2.85,0,0,1,2.87-2.78,2.31,2.31,0,0,1,.46.05A2.82,2.82,0,0,1,239.15,288.42Z" style="fill:#0069F0"></path><path d="M239.15,288.42a2.84,2.84,0,1,1-5.68-.05v0a2.85,2.85,0,0,1,2.87-2.78,2.31,2.31,0,0,1,.46.05A2.82,2.82,0,0,1,239.15,288.42Z" style="fill:#fff;opacity:0.4"></path><path d="M236.8,285.6a2.83,2.83,0,0,1-2.87,2.77,2.32,2.32,0,0,1-.46,0,2.85,2.85,0,0,1,2.87-2.78A2.31,2.31,0,0,1,236.8,285.6Z" style="fill:#fff;opacity:0.8"></path><polygon points="337.49 284.46 337.21 301.24 321.28 310.17 321.2 283.35 337.49 284.46" style="fill:#263238"></polygon><path d="M328.08,303.16a2.13,2.13,0,0,1-4.26,0v0A2.13,2.13,0,0,1,326,301l.35,0A2.12,2.12,0,0,1,328.08,303.16Z" style="fill:#0069F0"></path><path d="M328.08,303.16a2.13,2.13,0,0,1-4.26,0v0A2.13,2.13,0,0,1,326,301l.35,0A2.12,2.12,0,0,1,328.08,303.16Z" style="fill:#fff;opacity:0.4"></path><path d="M326.32,301a2.14,2.14,0,0,1-2.15,2.08,1.34,1.34,0,0,1-.35,0A2.13,2.13,0,0,1,326,301Z" style="fill:#fff;opacity:0.8"></path><polygon points="168.88 190.75 155.6 199.94 156.85 217.63 178.38 203.36 168.88 190.75" style="fill:#263238"></polygon><path d="M158.88,208.37a2.08,2.08,0,0,0-.56,2.87,2,2,0,0,0,2.84.56h0a2.1,2.1,0,0,0,.53-2.86,1.88,1.88,0,0,0-.22-.26A2,2,0,0,0,158.88,208.37Z" style="fill:#0069F0"></path><path d="M158.88,208.37a2.08,2.08,0,0,0-.56,2.87,2,2,0,0,0,2.84.56h0a2.1,2.1,0,0,0,.53-2.86,1.88,1.88,0,0,0-.22-.26A2,2,0,0,0,158.88,208.37Z" style="fill:#fff;opacity:0.4"></path><path d="M161.5,208.67a2.09,2.09,0,0,0-.53,2.85,2,2,0,0,0,.22.27,2.1,2.1,0,0,0,.53-2.86A1.88,1.88,0,0,0,161.5,208.67Z" style="fill:#fff;opacity:0.8"></path><path d="M238.74,305.83a2.84,2.84,0,0,1-5.68-.06v0a2.84,2.84,0,0,1,2.87-2.77,3.42,3.42,0,0,1,.46,0A2.83,2.83,0,0,1,238.74,305.83Z" style="fill:#0069F0"></path><path d="M238.74,305.83a2.84,2.84,0,0,1-5.68-.06v0a2.84,2.84,0,0,1,2.87-2.77,3.42,3.42,0,0,1,.46,0A2.83,2.83,0,0,1,238.74,305.83Z" style="fill:#fff;opacity:0.4"></path><path d="M236.39,303a2.85,2.85,0,0,1-2.87,2.78,3.41,3.41,0,0,1-.46,0,2.84,2.84,0,0,1,2.87-2.77A3.42,3.42,0,0,1,236.39,303Z" style="fill:#fff;opacity:0.8"></path><polygon points="207.3 392.69 225.41 390.4 226.4 392.8 209.26 395.26 207.3 392.69" style="fill:#0069F0"></polygon><polygon points="202.49 385.84 222.45 382.99 222.46 382.99 222.7 383.57 223.08 384.52 223.43 385.39 204.17 388.48 202.49 385.84" style="fill:#0069F0"></polygon><polygon points="330.52 384.01 319.68 395.3 322.3 396.57 332.33 385.78 330.52 384.01" style="fill:#0069F0"></polygon><path d="M325.91,379.47l-11.49,13.28c-.82-.41-1.64-.84-2.44-1.3l-.13-.07,12-13.92.49.48.19.2Z" style="fill:#0069F0"></path><polygon points="317.4 364.45 321.88 372.11 304.2 391.1 298.28 386.75 317.4 364.45" style="fill:#263238"></polygon><polygon points="191 374.23 197.02 381.56 222.14 378.74 222.03 371.4 191 374.23" style="fill:#263238"></polygon><path d="M213,410.92l-6.46-3.3,5.19-4.91,7,2.94Zm-3.89-3.67,3.65,1.86,3.26-3-4-1.66Z" style="fill:#fff"></path><path d="M340.6,396.36l-1.27-7.51,6-4,1.75,7Zm.37-6.8.72,4.23,3.64-2.5-1-4Z" style="fill:#fff"></path><path d="M238.51,344.78l-8.81-4L217.22,354.8a182.77,182.77,0,0,1,16.59-8.08Z" style="opacity:0.2"></path><path d="M274.23,108.47a10.87,10.87,0,0,1-.14,1.5,111.43,111.43,0,0,1-12,34.15,60.55,60.55,0,0,0-8.48-2A112.7,112.7,0,0,0,262,108.88c0-.27.06-.55.1-.83A49.39,49.39,0,0,1,274.23,108.47Z" style="fill:#fff;opacity:0.2"></path><g id="freepik--Beer--inject-185"><path d="M133.27,202.42l10.9,1.38a10.25,10.25,0,0,0,11.19-8.6l2.24-13.3c1-5.88-2.76-11.39-8.39-12.15l-11.66-1.57-.81,6.46,11.52,1.54a4.22,4.22,0,0,1,3.47,4.95l-2.09,13.34a4.21,4.21,0,0,1-4.62,3.58l-11-1.41Z" style="fill:#0069F0"></path><g style="opacity:0.5"><path d="M133.27,202.42l10.9,1.38a10.25,10.25,0,0,0,11.19-8.6l2.24-13.3c1-5.88-2.76-11.39-8.39-12.15l-11.66-1.57-.81,6.46,11.52,1.54a4.22,4.22,0,0,1,3.47,4.95l-2.09,13.34a4.21,4.21,0,0,1-4.62,3.58l-11-1.41Z" style="fill:#fff"></path></g><path d="M112.56,204.22,136,207.16a3.54,3.54,0,0,0,3.94-3l5.19-37.25a4,4,0,0,0-3.2-4.62l-25.6-3.49a3.75,3.75,0,0,0-4.14,3.65l-2.85,37.84A3.76,3.76,0,0,0,112.56,204.22Z" style="fill:#0069F0"></path><path d="M145.68,162.77l-33.2-4.54-3.15,41.91a3.87,3.87,0,0,0,3.34,4.1l23.21,2.91a3.66,3.66,0,0,0,4.06-3.14ZM137,203.63a.62.62,0,0,1-.69.54l-23.36-2.95a.65.65,0,0,1-.56-.7l3.12-38.27,26.52,3.6Z" style="fill:#fff;opacity:0.4"></path><path d="M132.8,180.18l3.87.45a1.2,1.2,0,0,0,1.34-1l1.3-10.86a1.22,1.22,0,0,0-1.09-1.34l-4-.48a1.21,1.21,0,0,0-1.37,1l-1.15,10.89A1.2,1.2,0,0,0,132.8,180.18Z" style="fill:#fff;opacity:0.4"></path><path d="M124.73,179.28l3.88.45a1.15,1.15,0,0,0,1.32-1l1.12-10.91a1.24,1.24,0,0,0-1.12-1.34l-4-.48a1.19,1.19,0,0,0-1.35,1.05l-1,10.94A1.22,1.22,0,0,0,124.73,179.28Z" style="fill:#fff;opacity:0.4"></path><path d="M116.82,178.32l3.9.46a1.14,1.14,0,0,0,1.31-1l.93-10.95a1.27,1.27,0,0,0-1.15-1.34l-4-.48a1.17,1.17,0,0,0-1.34,1.05l-.78,11A1.24,1.24,0,0,0,116.82,178.32Z" style="fill:#fff;opacity:0.4"></path><path d="M131.42,192.55l3.86.49a1.18,1.18,0,0,0,1.35-1l1-8.33a1.22,1.22,0,0,0-1.08-1.34l-4-.52a1.21,1.21,0,0,0-1.38,1l-.81,8.36A1.19,1.19,0,0,0,131.42,192.55Z" style="fill:#fff;opacity:0.4"></path><path d="M123.75,191.58l3.87.49a1.16,1.16,0,0,0,1.34-1l.78-8.36a1.26,1.26,0,0,0-1.11-1.36l-4-.51a1.19,1.19,0,0,0-1.37,1l-.63,8.4A1.22,1.22,0,0,0,123.75,191.58Z" style="fill:#fff;opacity:0.4"></path><path d="M116.05,190.61l3.89.49a1.15,1.15,0,0,0,1.32-1l.59-8.41a1.28,1.28,0,0,0-1.13-1.36l-4-.52a1.17,1.17,0,0,0-1.35,1l-.44,8.44A1.26,1.26,0,0,0,116.05,190.61Z" style="fill:#fff;opacity:0.4"></path><path d="M130.63,201.87l3.87.49a1.17,1.17,0,0,0,1.34-1l.77-5.23a1.22,1.22,0,0,0-1.08-1.35l-4-.51a1.2,1.2,0,0,0-1.38,1l-.62,5.26A1.19,1.19,0,0,0,130.63,201.87Z" style="fill:#fff;opacity:0.4"></path><path d="M123,200.9l3.88.49a1.15,1.15,0,0,0,1.33-1l.58-5.28a1.24,1.24,0,0,0-1.1-1.35l-4-.52a1.18,1.18,0,0,0-1.36,1l-.44,5.31A1.22,1.22,0,0,0,123,200.9Z" style="fill:#fff;opacity:0.4"></path><path d="M115.26,199.93l3.89.49a1.13,1.13,0,0,0,1.32-1l.4-5.32a1.29,1.29,0,0,0-1.13-1.36l-4-.52a1.16,1.16,0,0,0-1.34,1l-.25,5.36A1.25,1.25,0,0,0,115.26,199.93Z" style="fill:#fff;opacity:0.4"></path></g><polygon points="112.17 162.41 111.69 168.8 144.23 173.21 145.68 162.77 112.48 158.23 112.17 162.41" style="fill:#fff;opacity:0.5"></polygon><path d="M117,134.74a6.4,6.4,0,1,1-6.4-6.4A6.39,6.39,0,0,1,117,134.74Z" style="fill:#0069F0"></path><path d="M117,134.74a6.4,6.4,0,1,1-6.4-6.4A6.39,6.39,0,0,1,117,134.74Z" style="fill:#fff;opacity:0.8"></path><circle cx="148.89" cy="141.07" r="4.12" style="fill:#0069F0"></circle><circle cx="148.89" cy="141.07" r="4.12" style="fill:#fff;opacity:0.8"></circle><circle cx="138.34" cy="143.15" r="1.6" style="fill:#0069F0"></circle><circle cx="138.34" cy="143.15" r="1.6" style="fill:#fff;opacity:0.7000000000000001"></circle><path d="M132,137.94a3.2,3.2,0,1,1-3.2-3.2A3.2,3.2,0,0,1,132,137.94Z" style="fill:#0069F0"></path><path d="M132,137.94a3.2,3.2,0,1,1-3.2-3.2A3.2,3.2,0,0,1,132,137.94Z" style="fill:#fff;opacity:0.7000000000000001"></path><path d="M156,156.08a3.2,3.2,0,1,1-3.2-3.2A3.21,3.21,0,0,1,156,156.08Z" style="fill:#0069F0"></path><path d="M156,156.08a3.2,3.2,0,1,1-3.2-3.2A3.21,3.21,0,0,1,156,156.08Z" style="fill:#fff;opacity:0.7000000000000001"></path><path d="M141.29,165.92c2,.56,6.06,2.74,6.15-4.34.09-7.28-10-4.06-10-4.06s-1.93-10.85-8.56-9.86-4.37,5.55-4.37,5.55-10-7-11.44-3,.53,4.68.53,4.68-6-1.35-5.65,2.51,7,5.3,7,5.3,9,.06,9.37,4,2,13.9,5.8,14.55,2.82-8.86,2.82-8.86,6,5.32,5.21-4.57C138.05,166.68,137.88,165,141.29,165.92Z" style="fill:#0069F0"></path><path d="M141.29,165.92c2,.56,6.06,2.74,6.15-4.34.09-7.28-10-4.06-10-4.06s-1.93-10.85-8.56-9.86-4.37,5.55-4.37,5.55-10-7-11.44-3,.53,4.68.53,4.68-6-1.35-5.65,2.51,7,5.3,7,5.3,9,.06,9.37,4,2,13.9,5.8,14.55,2.82-8.86,2.82-8.86,6,5.32,5.21-4.57C138.05,166.68,137.88,165,141.29,165.92Z" style="fill:#fff;opacity:0.8"></path></g></svg>