<svg width="116" height="47" viewBox="0 0 116 47" fill="none" xmlns="http://www.w3.org/2000/svg">
<path d="M0.3 46V12.46C0.3 10.3 0.64 8.5 1.32 7.06C2 5.62 2.88 4.5 3.96 3.7C5.04 2.86 6.24 2.28 7.56 1.96C8.88 1.6 10.16 1.42 11.4 1.42C12.64 1.42 14.36 1.44 16.56 1.48C18.76 1.48 21.14 1.56 23.7 1.72C26.3 1.84 28.76 2.06 31.08 2.38V12.16H14.76C13.76 12.16 13.04 12.44 12.6 13C12.16 13.52 11.94 14.08 11.94 14.68V19.72L28.08 20.32V29.56L11.94 30.16V46H0.3ZM36.5264 9.58C35.5664 9.58 35.0864 9.12 35.0864 8.2V1.54C35.0864 0.539998 35.5664 0.0399981 36.5264 0.0399981H45.6464C46.0864 0.0399981 46.4064 0.179997 46.6064 0.459996C46.8464 0.739997 46.9664 1.1 46.9664 1.54V8.2C46.9664 9.12 46.5264 9.58 45.6464 9.58H36.5264ZM35.2064 46V13.66H46.8464V46H35.2064ZM62.82 46.36C60.38 46.36 58.3 45.86 56.58 44.86C54.86 43.82 53.54 42.12 52.62 39.76C51.74 37.4 51.3 34.22 51.3 30.22C51.3 26.22 51.64 22.98 52.32 20.5C53.04 17.98 54.28 16.12 56.04 14.92C57.8 13.72 60.26 13.12 63.42 13.12C64.7 13.12 65.96 13.24 67.2 13.48C68.48 13.72 69.62 14.02 70.62 14.38V0.219999H82.26V46H72.42L70.62 43.06C69.46 44.06 68.24 44.86 66.96 45.46C65.68 46.06 64.3 46.36 62.82 46.36ZM67.08 37.06C67.88 37.06 68.58 36.94 69.18 36.7C69.82 36.42 70.3 36.14 70.62 35.86V22.78C70.26 22.58 69.76 22.36 69.12 22.12C68.52 21.88 67.94 21.76 67.38 21.76C66.3 21.76 65.42 21.94 64.74 22.3C64.1 22.66 63.64 23.4 63.36 24.52C63.08 25.64 62.94 27.34 62.94 29.62C62.94 31.82 63.06 33.46 63.3 34.54C63.58 35.58 64.02 36.26 64.62 36.58C65.26 36.9 66.08 37.06 67.08 37.06ZM94.6734 46.36C92.1934 46.36 90.1734 45.62 88.6134 44.14C87.0934 42.66 86.3334 40.66 86.3334 38.14V34.84C86.3334 32.44 87.2134 30.44 88.9734 28.84C90.7334 27.24 93.5334 26.44 97.3734 26.44H103.853V25.42C103.853 24.62 103.713 24 103.433 23.56C103.153 23.08 102.573 22.76 101.693 22.6C100.853 22.4 99.5134 22.3 97.6734 22.3H88.2534V15.64C89.9334 14.96 91.8534 14.4 94.0134 13.96C96.2134 13.52 98.8934 13.3 102.053 13.3C104.773 13.3 107.133 13.62 109.133 14.26C111.173 14.86 112.733 15.98 113.813 17.62C114.933 19.22 115.493 21.54 115.493 24.58V46H106.253L104.453 42.76C103.693 43.52 102.513 44.32 100.913 45.16C99.3134 45.96 97.2334 46.36 94.6734 46.36ZM100.793 38.44C101.353 38.44 101.933 38.36 102.533 38.2C103.133 38 103.573 37.82 103.853 37.66V31.84L101.393 32.2C100.273 32.36 99.4134 32.66 98.8134 33.1C98.2534 33.5 97.9734 34.14 97.9734 35.02V36.22C97.9734 37.02 98.2134 37.6 98.6934 37.96C99.2134 38.28 99.9134 38.44 100.793 38.44Z" fill="#0069F0"/>
</svg>
