<svg width="185" height="149" viewBox="0 0 185 149" fill="none" xmlns="http://www.w3.org/2000/svg">
<g clip-path="url(#clip0)">
<path d="M177.671 0.000205678H122.138C119.459 7.47559e-05 116.858 0.909486 114.765 2.57894C112.672 4.2484 111.211 6.57855 110.622 9.18634L82.5625 133.341C82.2565 134.696 82.2511 136.1 82.5467 137.457C82.8424 138.813 83.4319 140.089 84.274 141.194C85.1161 142.299 86.1904 143.207 87.4215 143.855C88.6526 144.502 90.0107 144.873 91.4006 144.941L148.489 147.747C151.546 147.897 154.553 146.932 156.95 145.033C159.346 143.134 160.968 140.43 161.513 137.426L177.431 49.6472L178.615 49.9847L181.662 33.3473L180.443 33.0434L184.886 8.54101C185.076 7.49149 185.032 6.413 184.757 5.38242C184.481 4.35183 183.981 3.39455 183.293 2.57881C182.604 1.76306 181.743 1.10896 180.772 0.663122C179.8 0.217285 178.743 -0.00930176 177.673 -0.00048463L177.671 0.000205678Z" fill="#3F3D56"/>
<path d="M129.448 2.67662H122.967C121.105 2.67664 119.3 3.31175 117.85 4.47651C116.4 5.64128 115.393 7.26565 114.996 9.07997L88.0621 132.222C87.907 132.931 87.9071 133.665 88.0625 134.374C88.2178 135.083 88.5248 135.75 88.9623 136.33C89.3999 136.91 89.9577 137.388 90.5978 137.733C91.2378 138.078 91.945 138.281 92.6709 138.329L149.574 142.049C151.179 142.154 152.767 141.666 154.034 140.677C155.302 139.689 156.16 138.27 156.445 136.69L179.428 9.41082C179.577 8.58702 179.542 7.7407 179.327 6.93158C179.112 6.12246 178.722 5.37026 178.184 4.72805C177.646 4.08584 176.973 3.56928 176.213 3.21482C175.452 2.86036 174.624 2.67664 173.785 2.67662H167.635C167.04 2.6766 166.462 2.87231 165.989 3.23345C165.517 3.59459 165.177 4.10101 165.022 4.67432C164.885 5.18062 164.585 5.62784 164.168 5.94671C163.751 6.26558 163.24 6.4383 162.714 6.4381H133.521C132.492 6.43807 131.501 6.05066 130.746 5.35331C129.991 4.65596 129.528 3.70005 129.448 2.67662Z" fill="white"/>
<path d="M160.904 88.7634C161.015 88.7672 161.123 88.7312 161.21 88.6619C161.296 88.5927 161.354 88.4949 161.374 88.3862L173.958 19.1065C173.97 19.0406 173.968 18.973 173.951 18.9081C173.934 18.8433 173.904 18.7828 173.862 18.7307C173.82 18.6791 173.767 18.6373 173.707 18.6083C173.648 18.5793 173.582 18.5638 173.516 18.5629L116.265 17.8883H116.259C116.155 17.8892 116.055 17.9253 115.974 17.9906C115.893 18.0559 115.837 18.1467 115.815 18.2479L100.98 85.2791C100.966 85.3445 100.966 85.4123 100.98 85.4777C100.994 85.5432 101.022 85.6049 101.063 85.6585C101.103 85.7117 101.154 85.7554 101.212 85.7867C101.271 85.8179 101.336 85.8359 101.403 85.8392L160.904 88.7634Z" fill="#0069F0" fill-opacity="0.1"/>
<path d="M111.222 93.2427C111.17 93.2427 111.12 93.2603 111.079 93.2927C111.038 93.325 111.01 93.3701 110.998 93.4207L110.462 95.7128C110.454 95.7452 110.454 95.7788 110.46 95.8114C110.467 95.844 110.481 95.8748 110.5 95.9016C110.52 95.9284 110.545 95.9506 110.575 95.9667C110.604 95.9828 110.636 95.9924 110.669 95.9948L140.957 98.1422C141.013 98.1457 141.068 98.1289 141.113 98.0947C141.158 98.0606 141.188 98.0114 141.2 97.9564L141.715 95.3044C141.721 95.2722 141.721 95.2391 141.713 95.2072C141.705 95.1753 141.691 95.1454 141.671 95.1195C141.651 95.0936 141.625 95.0723 141.596 95.0571C141.567 95.0418 141.535 95.0328 141.502 95.0309L111.236 93.2431L111.222 93.2427Z" fill="#E6E6E6"/>
<path d="M148.02 106.656C148.074 106.661 148.129 106.645 148.173 106.614C148.218 106.582 148.249 106.535 148.262 106.482L148.919 103.824C148.927 103.792 148.927 103.758 148.921 103.725C148.915 103.692 148.901 103.661 148.881 103.634C148.861 103.607 148.836 103.584 148.806 103.568C148.777 103.551 148.744 103.542 148.711 103.539L110.032 100.841C109.98 100.837 109.927 100.851 109.884 100.881C109.841 100.911 109.809 100.955 109.795 101.005L109.113 103.302C109.103 103.334 109.101 103.369 109.106 103.403C109.111 103.437 109.124 103.469 109.144 103.497C109.163 103.525 109.188 103.549 109.218 103.566C109.248 103.583 109.281 103.594 109.315 103.596L148.02 106.656Z" fill="#E6E6E6"/>
<path d="M145.942 115.175C145.997 115.179 146.051 115.164 146.096 115.132C146.14 115.1 146.172 115.053 146.185 115L146.841 112.343C146.849 112.31 146.85 112.276 146.844 112.243C146.837 112.21 146.824 112.179 146.804 112.152C146.784 112.125 146.759 112.102 146.729 112.086C146.7 112.07 146.667 112.06 146.634 112.058L107.955 109.359C107.902 109.355 107.85 109.369 107.807 109.399C107.764 109.429 107.732 109.473 107.717 109.524L107.035 111.82C107.026 111.853 107.023 111.887 107.029 111.921C107.034 111.955 107.047 111.987 107.066 112.016C107.086 112.044 107.111 112.067 107.141 112.084C107.171 112.102 107.204 112.112 107.238 112.115L145.942 115.175Z" fill="#E6E6E6"/>
<path d="M78.8809 145.164C78.8809 147.091 61.2008 147.296 39.4404 148.653C17.6995 150.008 0 147.091 0 145.164C0 143.237 17.7821 139.361 39.4404 141.675C61.2008 144.001 78.8809 143.237 78.8809 145.164Z" fill="#E6E6E6"/>
<path d="M128.128 129.737C128.184 129.743 128.239 129.728 128.284 129.696C128.329 129.665 128.361 129.617 128.374 129.564L129.762 124.026C129.77 123.994 129.771 123.96 129.765 123.927C129.758 123.895 129.745 123.864 129.726 123.836C129.706 123.809 129.681 123.787 129.652 123.77C129.623 123.754 129.591 123.744 129.557 123.741L105.805 121.748C105.749 121.744 105.694 121.76 105.649 121.793C105.605 121.826 105.573 121.873 105.56 121.927L104.376 127.242C104.369 127.274 104.369 127.307 104.376 127.339C104.382 127.371 104.396 127.401 104.415 127.427C104.434 127.454 104.459 127.476 104.487 127.492C104.516 127.508 104.548 127.518 104.58 127.521L128.128 129.737Z" fill="#0069F0"/>
<path d="M32.2211 107.173C32.5202 106.969 32.7707 106.701 32.955 106.39C33.1393 106.078 33.2528 105.73 33.2876 105.37C33.3224 105.01 33.2777 104.647 33.1565 104.306C33.0353 103.965 32.8407 103.655 32.5863 103.397L33.548 81.982L28.6517 82.5301L28.9362 103.478C28.5302 103.932 28.3055 104.52 28.3049 105.129C28.3042 105.738 28.5276 106.326 28.9327 106.781C29.3378 107.237 29.8964 107.528 30.5025 107.6C31.1087 107.672 31.7203 107.52 32.2214 107.172L32.2211 107.173Z" fill="#A0616A"/>
<path d="M41.1536 143.425L43.9405 143.914L46.6948 133.423L43.0434 132.702L41.1536 143.425Z" fill="#A0616A"/>
<path d="M48.8609 147.437L40.1024 145.901L40.6973 142.526L46.0718 143.468C46.9693 143.626 47.7673 144.132 48.2904 144.877C48.8134 145.621 49.0186 146.542 48.8608 147.437L48.8609 147.437Z" fill="#2F2E41"/>
<path d="M33.5046 144.816H36.3342L37.6802 133.929H33.5042L33.5046 144.816Z" fill="#A0616A"/>
<path d="M41.7901 147.438L32.8973 147.438L32.8971 144.011L38.3541 144.01C39.2653 144.01 40.1392 144.371 40.7836 145.014C41.428 145.657 41.7901 146.529 41.7901 147.438Z" fill="#2F2E41"/>
<path d="M45.3096 140.914C45.2654 140.914 45.2213 140.911 45.1775 140.906L41.8472 140.633C41.6955 140.615 41.5491 140.567 41.4168 140.491C41.2845 140.415 41.169 140.313 41.0774 140.191C40.9858 140.069 40.92 139.93 40.884 139.782C40.848 139.634 40.8425 139.48 40.8679 139.33L44.174 123.057L42.0969 112.127C42.08 112.038 42.0314 111.959 41.9602 111.903C41.8889 111.847 41.7999 111.819 41.7093 111.823C41.6188 111.828 41.533 111.865 41.4677 111.927C41.4024 111.99 41.362 112.074 41.354 112.164L38.2934 139.936C38.2648 140.228 38.1234 140.498 37.8991 140.689C37.6748 140.88 37.385 140.976 37.0909 140.957L33.9533 140.841C33.6783 140.821 33.42 140.702 33.2272 140.506C33.0343 140.309 32.9202 140.049 32.9064 139.775L33.157 106.215L49.4237 104.186L50.5602 121.693L50.5555 121.712L46.4033 140.055C46.3435 140.3 46.2033 140.517 46.005 140.673C45.8067 140.829 45.5619 140.913 45.3096 140.914Z" fill="#2F2E41"/>
<path d="M38.5214 68.1054C41.6521 68.1054 44.19 65.5737 44.19 62.4507C44.19 59.3278 41.6521 56.7961 38.5214 56.7961C35.3907 56.7961 32.8528 59.3278 32.8528 62.4507C32.8528 65.5737 35.3907 68.1054 38.5214 68.1054Z" fill="#A0616A"/>
<path d="M43.8625 108.769C42.9759 108.774 42.1064 108.526 41.3568 108.054C38.6103 106.342 35.492 107.022 33.8774 107.58C33.7171 107.636 33.5463 107.655 33.3776 107.636C33.2089 107.617 33.0467 107.56 32.9032 107.469C32.7613 107.38 32.6415 107.261 32.5526 107.119C32.4637 106.977 32.4081 106.818 32.3899 106.651L29.4539 80.4917C28.9619 76.1086 31.6086 71.9877 35.7473 70.6931C35.9028 70.6445 36.0609 70.5984 36.2216 70.555C37.5095 70.2067 38.8582 70.1442 40.173 70.3718C41.4877 70.5994 42.7364 71.1117 43.8313 71.8726C44.9467 72.6418 45.8794 73.6455 46.564 74.8131C47.2485 75.9807 47.6682 77.2837 47.7934 78.6305L50.2655 104.966C50.2823 105.136 50.2592 105.308 50.1981 105.468C50.1369 105.628 50.0394 105.772 49.913 105.888C49.0462 106.688 46.531 108.768 43.8625 108.769Z" fill="#0069F0"/>
<path d="M34.9212 86.1015L28.2974 85.3749C28.1089 85.3542 27.9271 85.2932 27.7644 85.1961C27.6016 85.0991 27.4618 84.9681 27.3543 84.8122C27.2469 84.6564 27.1744 84.4792 27.1418 84.2929C27.1092 84.1065 27.1172 83.9154 27.1653 83.7324L28.8515 77.3214C28.9012 76.8409 29.0459 76.375 29.2771 75.9506C29.5084 75.5262 29.8217 75.1517 30.1989 74.8487C30.5761 74.5458 31.0097 74.3205 31.4748 74.1857C31.9398 74.051 32.427 74.0095 32.9082 74.0637C33.3894 74.1179 33.8551 74.2667 34.2783 74.5015C34.7015 74.7363 35.0738 75.0524 35.3738 75.4316C35.6738 75.8108 35.8955 76.2456 36.0261 76.7107C36.1567 77.1759 36.1935 77.6623 36.1345 78.1418L36.385 84.7436C36.3921 84.9326 36.3584 85.121 36.286 85.2959C36.2136 85.4708 36.1042 85.628 35.9654 85.7569C35.8266 85.8858 35.6615 85.9834 35.4815 86.0429C35.3015 86.1024 35.1107 86.1226 34.9222 86.1019L34.9212 86.1015Z" fill="#0069F0"/>
<path d="M50.2384 106.256C50.5105 106.017 50.7268 105.722 50.872 105.39C51.0172 105.059 51.0878 104.7 51.0789 104.339C51.07 103.977 50.9817 103.622 50.8203 103.298C50.6589 102.975 50.4283 102.69 50.1447 102.465L48.5123 81.0898L43.7143 82.1673L46.53 102.983C46.1818 103.483 46.0298 104.094 46.1027 104.698C46.1756 105.303 46.4684 105.86 46.9255 106.263C47.3827 106.667 47.9724 106.889 48.5829 106.888C49.1934 106.886 49.7821 106.662 50.2375 106.256H50.2384Z" fill="#A0616A"/>
<path d="M41.8751 84.7578C41.7362 84.629 41.6268 84.4719 41.5544 84.297C41.482 84.1222 41.4483 83.9339 41.4555 83.7448L41.7059 77.143C41.6519 76.666 41.6926 76.183 41.8257 75.7217C41.9589 75.2603 42.1818 74.8297 42.4817 74.4543C42.7817 74.0789 43.1528 73.7661 43.574 73.5338C43.9951 73.3015 44.458 73.1542 44.9362 73.1003C45.4144 73.0464 45.8986 73.0871 46.3611 73.2199C46.8235 73.3527 47.2553 73.575 47.6316 73.8742C48.0079 74.1735 48.3215 74.5437 48.5543 74.9638C48.7872 75.3839 48.9349 75.8457 48.9889 76.3227L50.6751 82.7337C50.7232 82.9166 50.7312 83.1078 50.6986 83.2941C50.666 83.4805 50.5935 83.6576 50.4861 83.8135C50.3787 83.9694 50.2388 84.1003 50.0761 84.1974C49.9133 84.2945 49.7315 84.3555 49.543 84.3761L42.9192 85.1027C42.7306 85.1234 42.5398 85.1033 42.3598 85.0437C42.1797 84.9841 42.0147 84.8864 41.876 84.7574L41.8751 84.7578Z" fill="#0069F0"/>
<path d="M38.1842 68.3184C38.0832 68.3183 37.9825 68.3067 37.8842 68.2836L37.8553 68.2767C32.8715 67.5169 31.77 64.6363 31.5283 63.4338C31.2781 62.1887 31.5629 60.9869 32.2068 60.52C31.8558 59.4149 31.9121 58.4339 32.3746 57.6049C33.1824 56.159 34.9321 55.671 35.1673 55.6102C36.5654 54.5813 38.2382 55.268 38.5426 55.4073C41.2473 54.4093 42.2815 55.24 42.468 55.4255C43.6769 55.6422 44.4139 56.1079 44.6585 56.8106C45.118 58.13 43.6649 59.7713 43.6028 59.8406L43.5705 59.8765L41.4057 59.9795C41.2002 59.9892 40.9992 60.042 40.8155 60.1343C40.6318 60.2266 40.4697 60.3563 40.3395 60.5152C40.2093 60.674 40.1141 60.8584 40.06 61.0563C40.0058 61.2542 39.994 61.4613 40.0253 61.664C40.0838 61.9256 40.1578 62.1836 40.2468 62.4365C40.6161 63.589 40.8931 64.5737 40.5363 64.948C40.4553 65.0205 40.3556 65.0687 40.2484 65.0872C40.1413 65.1057 40.0311 65.0938 39.9304 65.0528C39.5918 64.9625 39.3622 64.9814 39.2477 65.1092C39.07 65.307 39.1242 65.8079 39.4005 66.5193C39.4872 66.7444 39.5105 66.9887 39.468 67.226C39.4254 67.4633 39.3186 67.6844 39.1591 67.8655C39.039 68.0068 38.8896 68.1205 38.7212 68.1986C38.5528 68.2768 38.3695 68.3177 38.1838 68.3184H38.1842Z" fill="#2F2E41"/>
</g>
<defs>
<clipPath id="clip0">
<rect width="185" height="149" fill="white"/>
</clipPath>
</defs>
</svg>
