<svg width="182" height="126" viewBox="0 0 182 126" fill="none" xmlns="http://www.w3.org/2000/svg">
<g clip-path="url(#clip0)">
<path opacity="0.1" d="M94.0442 21.4937C82.5608 23.4243 71.0855 22.5587 60.0445 21.3087C49.0036 20.0587 38.0013 18.4322 26.5002 18.8859C19.1068 19.1851 10.872 20.6475 5.7232 24.9397C0.765882 29.0711 0.00482699 34.66 0 39.7052C0 43.5019 0.3218 47.4273 2.99756 50.4567C4.84951 52.5578 7.69905 54.0668 9.84545 56.0054C17.3176 62.751 15.0747 73.3336 10.2043 82.3267C7.91948 86.5449 5.12304 90.6924 3.57036 95.0071C2.01768 99.3219 1.81977 103.957 4.62586 107.491C7.40621 110.994 12.7738 112.977 18.3667 114.012C29.7278 116.114 42.3745 114.856 54.6109 113.14C81.6984 109.341 108.503 103.362 135.235 97.3962C145.127 95.1873 155.062 92.9688 164.592 89.7738C169.884 88.0041 175.271 85.7791 178.684 82.3203C183.015 77.9267 183.115 71.9195 178.917 68.3238C171.875 62.2796 155.97 63.5795 150.518 56.6778C147.518 52.865 148.808 47.7169 151.176 43.1801C156.259 33.4341 166.108 23.8184 164.801 14.0869C163.904 7.404 157.159 1.86013 148.134 0.412225C138.675 -1.11934 126.538 1.71051 121.103 8.41754C115.521 15.3176 104.184 19.7916 94.0442 21.4937Z" fill="#0069F0"/>
<path d="M137.518 17.2285C137.323 17.8527 137.127 18.4769 136.874 19.0834C136.442 20.1375 135.897 21.1414 135.247 22.0774C134.826 22.6934 134.372 23.2873 133.889 23.8567C133.284 24.5694 132.61 25.2869 132.396 26.1975C132.272 26.7235 132.314 27.2737 132.261 27.8062C132.208 28.3387 132.036 28.9131 131.6 29.2348C131.289 29.4649 130.892 29.5341 130.511 29.5952C130.237 29.6386 129.896 29.6515 129.753 29.415C129.704 29.318 129.679 29.2112 129.679 29.1029L129.613 28.3162C129.598 28.1473 129.539 27.9285 129.368 27.9205C129.198 27.9124 129.112 28.1393 128.967 28.2422C128.774 28.3774 128.485 28.2422 128.379 28.0379C128.291 27.8173 128.284 27.5725 128.361 27.3477C128.478 26.8998 128.689 26.4818 128.98 26.1213C129.27 25.7608 129.634 25.466 130.047 25.2563C130.334 25.1402 130.608 24.9969 130.868 24.8284C131.131 24.5994 131.349 24.3233 131.511 24.0143C133.004 21.5561 134.506 19.085 135.558 16.4096C135.767 15.9323 135.907 15.4281 135.976 14.9118C136.028 14.3841 135.946 13.8565 135.912 13.3272C135.85 12.3799 135.937 11.4287 136.171 10.5086C136.223 10.2663 136.314 10.0342 136.441 9.82164C136.876 9.16364 137.889 9.06551 138.533 9.52079C138.77 9.7028 138.967 9.93231 139.11 10.1946C139.254 10.457 139.341 10.7464 139.366 11.0443C139.413 11.5768 139.106 12.1302 138.95 12.6274C138.472 14.1632 137.995 15.6969 137.518 17.2285Z" fill="#A1616A"/>
<path opacity="0.05" d="M137.518 17.2285C137.323 17.8527 137.127 18.4769 136.874 19.0834C136.442 20.1375 135.897 21.1414 135.247 22.0774C134.826 22.6934 134.372 23.2873 133.889 23.8567C133.284 24.5694 132.61 25.2869 132.396 26.1975C132.272 26.7235 132.314 27.2737 132.261 27.8062C132.208 28.3387 132.036 28.9131 131.6 29.2348C131.289 29.4649 130.892 29.5341 130.511 29.5952C130.237 29.6386 129.896 29.6515 129.753 29.415C129.704 29.318 129.679 29.2112 129.679 29.1029L129.613 28.3162C129.598 28.1473 129.539 27.9285 129.368 27.9205C129.198 27.9124 129.112 28.1393 128.967 28.2422C128.774 28.3774 128.485 28.2422 128.379 28.0379C128.291 27.8173 128.284 27.5725 128.361 27.3477C128.478 26.8998 128.689 26.4818 128.98 26.1213C129.27 25.7608 129.634 25.466 130.047 25.2563C130.334 25.1402 130.608 24.9969 130.868 24.8284C131.131 24.5994 131.349 24.3233 131.511 24.0143C133.004 21.5561 134.506 19.085 135.558 16.4096C135.767 15.9323 135.907 15.4281 135.976 14.9118C136.028 14.3841 135.946 13.8565 135.912 13.3272C135.85 12.3799 135.937 11.4287 136.171 10.5086C136.223 10.2663 136.314 10.0342 136.441 9.82164C136.876 9.16364 137.889 9.06551 138.533 9.52079C138.77 9.7028 138.967 9.93231 139.11 10.1946C139.254 10.457 139.341 10.7464 139.366 11.0443C139.413 11.5768 139.106 12.1302 138.95 12.6274C138.472 14.1632 137.995 15.6969 137.518 17.2285Z" fill="black"/>
<path d="M146.898 43.5128C146.607 43.6127 146.297 43.6495 145.991 43.6206C145.968 43.3696 145.63 43.3133 145.379 43.3262C145.258 43.3222 145.138 43.3499 145.03 43.4066C144.967 43.4468 144.919 43.5064 144.858 43.5466C144.749 43.6069 144.627 43.6385 144.502 43.6383L143.196 43.7477C142.613 43.7976 142.007 43.8442 141.461 43.6351C141.352 43.6012 141.256 43.5364 141.183 43.4484C141.035 43.2361 141.183 42.932 141.387 42.7792C141.592 42.6264 141.856 42.554 142.061 42.3963C142.515 42.0504 142.578 41.4037 142.818 40.8873C142.987 40.5596 143.197 40.2547 143.444 39.9799C143.621 39.744 143.828 39.532 144.06 39.3493C144.583 38.9696 145.186 38.9776 145.802 38.9229C146.237 38.8843 146.646 38.8602 146.958 39.2447C147.342 39.7273 147.189 40.6926 147.165 41.2573C147.135 42.0149 147.046 42.769 146.898 43.5128Z" fill="#514E7F"/>
<path opacity="0.05" d="M146.898 43.5128C146.607 43.6127 146.297 43.6495 145.991 43.6206C145.968 43.3696 145.63 43.3133 145.379 43.3262C145.258 43.3222 145.138 43.3499 145.03 43.4066C144.967 43.4468 144.919 43.5064 144.858 43.5466C144.749 43.6069 144.627 43.6385 144.502 43.6383L143.196 43.7477C142.613 43.7976 142.007 43.8442 141.461 43.6351C141.352 43.6012 141.256 43.5364 141.183 43.4484C141.035 43.2361 141.183 42.932 141.387 42.7792C141.592 42.6264 141.856 42.554 142.061 42.3963C142.515 42.0504 142.578 41.4037 142.818 40.8873C142.987 40.5596 143.197 40.2547 143.444 39.9799C143.621 39.744 143.828 39.532 144.06 39.3493C144.583 38.9696 145.186 38.9776 145.802 38.9229C146.237 38.8843 146.646 38.8602 146.958 39.2447C147.342 39.7273 147.189 40.6926 147.165 41.2573C147.135 42.0149 147.046 42.769 146.898 43.5128Z" fill="black"/>
<path d="M146.37 18.1004C146.769 18.2291 146.943 18.7263 146.869 19.1413C146.795 19.5564 146.547 19.9103 146.343 20.2771C145.761 21.318 145.51 22.5085 145.02 23.5944C144.655 24.4069 144.161 25.1566 143.799 25.9706C143.437 26.7847 143.217 27.7033 143.434 28.5656C143.542 28.9855 143.756 29.37 143.884 29.7834C144.02 30.2316 144.108 30.6925 144.148 31.1589C144.326 32.7433 144.357 34.3405 144.243 35.9306C144.242 36.1245 144.202 36.3161 144.124 36.4937C144.042 36.6546 143.901 36.8154 143.963 36.9763C143.991 37.0423 144.049 37.0905 144.079 37.1549C144.163 37.3351 143.996 37.5265 143.843 37.6552C143.87 37.7038 143.906 37.7463 143.95 37.7803C143.994 37.8143 144.045 37.8391 144.098 37.8531C143.989 37.9231 143.904 38.0266 143.858 38.1482C143.811 38.2699 143.805 38.4033 143.839 38.5288C143.976 38.5481 143.984 38.7572 143.899 38.865C143.814 38.9728 143.679 39.042 143.617 39.1659C143.581 39.2668 143.585 39.3776 143.628 39.4757C143.671 39.5738 143.75 39.6518 143.849 39.6936C144.05 39.7717 144.269 39.7885 144.48 39.7418C144.84 39.6932 145.197 39.6163 145.545 39.5118C145.66 39.4824 145.769 39.4329 145.867 39.3654C146.042 39.1953 146.146 38.9654 146.158 38.7218C146.238 38.0671 146.262 37.4067 146.23 36.7479C146.172 33.556 146.23 30.361 146.369 27.1708C146.425 25.8837 146.811 24.6369 147.307 23.4529C147.583 22.8453 147.889 22.252 148.224 21.6752C148.938 20.3672 149.567 18.9193 149.407 17.4264C149.389 17.2655 149.329 17.074 149.172 17.0483C149.109 17.0416 149.046 17.0522 148.99 17.0789C148.659 17.2331 148.339 17.41 148.032 17.6082C147.526 17.904 146.956 18.0729 146.37 18.1004Z" fill="#464353"/>
<path opacity="0.05" d="M146.37 18.1004C146.769 18.2291 146.943 18.7263 146.869 19.1413C146.795 19.5564 146.547 19.9103 146.343 20.2771C145.761 21.318 145.51 22.5085 145.02 23.5944C144.655 24.4069 144.161 25.1566 143.799 25.9706C143.437 26.7847 143.217 27.7033 143.434 28.5656C143.542 28.9855 143.756 29.37 143.884 29.7834C144.02 30.2316 144.108 30.6925 144.148 31.1589C144.326 32.7433 144.357 34.3405 144.243 35.9306C144.242 36.1245 144.202 36.3161 144.124 36.4937C144.042 36.6546 143.901 36.8154 143.963 36.9763C143.991 37.0423 144.049 37.0905 144.079 37.1549C144.163 37.3351 143.996 37.5265 143.843 37.6552C143.87 37.7038 143.906 37.7463 143.95 37.7803C143.994 37.8143 144.045 37.8391 144.098 37.8531C143.989 37.9231 143.904 38.0266 143.858 38.1482C143.811 38.2699 143.805 38.4033 143.839 38.5288C143.976 38.5481 143.984 38.7572 143.899 38.865C143.814 38.9728 143.679 39.042 143.617 39.1659C143.581 39.2668 143.585 39.3776 143.628 39.4757C143.671 39.5738 143.75 39.6518 143.849 39.6936C144.05 39.7717 144.269 39.7885 144.48 39.7418C144.84 39.6932 145.197 39.6163 145.545 39.5118C145.66 39.4824 145.769 39.4329 145.867 39.3654C146.042 39.1953 146.146 38.9654 146.158 38.7218C146.238 38.0671 146.262 37.4067 146.23 36.7479C146.172 33.556 146.23 30.361 146.369 27.1708C146.425 25.8837 146.811 24.6369 147.307 23.4529C147.583 22.8453 147.889 22.252 148.224 21.6752C148.938 20.3672 149.567 18.9193 149.407 17.4264C149.389 17.2655 149.329 17.074 149.172 17.0483C149.109 17.0416 149.046 17.0522 148.99 17.0789C148.659 17.2331 148.339 17.41 148.032 17.6082C147.526 17.904 146.956 18.0729 146.37 18.1004Z" fill="black"/>
<path d="M151.765 14.2217C151.973 14.0869 152.213 14.0107 152.46 14.0013C152.747 14.0157 152.991 14.204 153.215 14.3841C153.48 14.5875 153.732 14.8078 153.968 15.0437C154.457 15.5662 154.797 16.2096 154.955 16.9075C155.112 17.6054 155.08 18.3327 154.863 19.0142C154.626 19.7237 154.193 20.3495 153.765 20.9625L152.896 22.2109C151.571 24.1141 150.245 26.0173 148.856 27.8754C148.856 27.9211 148.841 27.9655 148.814 28.0022C148.787 28.0389 148.749 28.0661 148.705 28.0797C148.654 28.0926 148.592 28.091 148.562 28.1328C148.548 28.1591 148.542 28.1886 148.544 28.2181C148.547 28.356 148.573 28.4925 148.621 28.6219C148.644 28.6637 148.65 28.7127 148.637 28.7586C148.592 28.8632 148.403 28.8053 148.341 28.9018C148.301 28.9662 148.351 29.0498 148.404 29.1045C148.457 29.1592 148.523 29.2203 148.514 29.296C148.504 29.3716 148.372 29.4568 148.377 29.5502C148.377 29.6048 148.425 29.6467 148.459 29.6901C148.506 29.7593 148.528 29.843 148.52 29.9264C148.512 30.0099 148.475 30.0879 148.415 30.147C148.324 31.0544 148.818 31.9167 148.916 32.8208C149.077 34.2494 148.425 35.6442 148.346 37.0777C148.351 37.2389 148.32 37.3993 148.256 37.5474C148.123 37.7952 147.773 37.9448 147.791 38.2263C147.816 38.3419 147.849 38.4558 147.888 38.5674C147.915 38.7283 147.839 38.8891 147.836 39.05C147.833 39.2109 147.975 39.4088 148.127 39.346C148.014 39.7246 147.912 40.107 147.823 40.4931L144.782 40.7441C144.75 40.4708 144.759 40.1941 144.81 39.9236C144.871 39.6308 145.004 39.3557 145.074 39.0645C145.119 38.9211 145.131 38.7694 145.11 38.6206C145.089 38.4717 145.036 38.3293 144.953 38.2038C145.032 38.2051 145.11 38.1782 145.171 38.1278C145.233 38.0775 145.275 38.0069 145.289 37.9287C145.317 37.7723 145.317 37.6121 145.289 37.4557C145.209 36.6626 145.542 35.8807 145.53 35.0844C145.522 34.4569 145.302 33.8553 145.191 33.2375C144.953 31.9183 145.201 30.4881 144.613 29.2847C144.258 28.5575 143.765 27.7531 144.164 27.0501C144.361 26.7026 144.708 26.4645 144.935 26.1363C145.12 25.8266 145.259 25.4917 145.347 25.1421C145.815 23.6942 146.573 22.3476 147.238 20.9721C147.418 20.6289 147.552 20.2632 147.637 19.8846C147.684 19.55 147.701 19.2118 147.687 18.8743C147.688 18.2666 147.725 17.6595 147.799 17.0563C147.814 16.7923 147.89 16.5353 148.02 16.305C148.151 16.1311 148.315 15.9841 148.502 15.8723C149.5 15.1789 150.694 14.7879 151.765 14.2217Z" fill="#464353"/>
<path d="M148.119 44.6261C147.827 44.7259 147.518 44.7627 147.21 44.7339C147.188 44.4845 146.851 44.4266 146.6 44.4395C146.479 44.4356 146.358 44.4633 146.25 44.5199C146.189 44.5601 146.14 44.6196 146.078 44.6599C145.969 44.7203 145.846 44.7519 145.722 44.7516L144.417 44.8626C143.833 44.9108 143.228 44.9575 142.681 44.7483C142.572 44.7155 142.475 44.6505 142.404 44.5617C142.255 44.3494 142.404 44.0469 142.609 43.8925C142.813 43.738 143.077 43.6672 143.281 43.5112C143.735 43.1637 143.798 42.5186 144.039 42.0005C144.207 41.6732 144.417 41.3688 144.663 41.0948C144.841 40.8591 145.048 40.6467 145.279 40.4625C145.804 40.0829 146.406 40.0909 147.022 40.0378C147.458 39.9976 147.867 39.9735 148.177 40.3596C148.563 40.8422 148.409 41.8075 148.386 42.3722C148.356 43.1293 148.267 43.8829 148.119 44.6261Z" fill="#514E7F"/>
<path d="M134.642 8.9545C136.306 8.9545 137.654 7.60614 137.654 5.94286C137.654 4.27957 136.306 2.93121 134.642 2.93121C132.979 2.93121 131.63 4.27957 131.63 5.94286C131.63 7.60614 132.979 8.9545 134.642 8.9545Z" fill="#A1616A"/>
<path d="M137.482 6.83733C137.915 7.20896 138.535 7.23792 139.101 7.29583C140.312 7.41846 141.491 7.75911 142.581 8.30132C142.733 8.36519 142.87 8.45936 142.983 8.57804C143.081 8.70504 143.151 8.85149 143.188 9.00758C143.291 9.34656 143.329 9.70173 143.302 10.0549C143.262 10.3979 143.164 10.7315 143.011 11.0411C142.592 11.9056 141.947 12.6405 141.144 13.1679C141.003 13.2733 140.842 13.3504 140.671 13.3947C140.276 13.4768 139.893 13.2483 139.502 13.1454C139.146 13.0524 138.771 13.0647 138.422 13.1808C138.1 13.2886 137.748 13.4897 137.429 13.3561C137.225 13.2415 137.067 13.0603 136.98 12.8429C136.672 12.26 136.398 11.66 136.158 11.0459C136.072 10.8072 135.973 10.5736 135.86 10.3461C135.511 9.68005 134.908 9.16685 134.607 8.47829C134.576 8.42548 134.557 8.3664 134.552 8.30542C134.547 8.24444 134.556 8.18312 134.578 8.12597C134.635 8.05201 134.712 7.99613 134.8 7.96509C135.246 7.70855 135.651 7.38822 136.004 7.0143C136.202 6.82607 136.565 6.31126 136.85 6.26782C137.178 6.20991 137.267 6.65071 137.482 6.83733Z" fill="#A1616A"/>
<path d="M137.413 12.9572C137.762 13.118 138.173 13.0489 138.552 12.97C139.527 12.7673 140.514 12.5598 141.416 12.1383C141.698 12.0304 141.943 11.8425 142.119 11.5977C142.23 11.3885 142.296 11.1592 142.316 10.9236L142.477 9.7975C142.535 9.40656 142.433 9.04459 142.425 8.64883C142.419 8.60496 142.422 8.56032 142.433 8.5175C142.444 8.47468 142.464 8.43455 142.491 8.39946C142.518 8.3766 142.549 8.35929 142.583 8.34853C142.617 8.33776 142.652 8.33375 142.687 8.33672C143.141 8.33672 143.415 8.81936 143.732 9.14111C143.915 9.32601 144.134 9.47209 144.375 9.57066C144.663 9.68971 145.019 9.77336 145.14 10.0629C145.188 10.1836 145.181 10.3204 145.233 10.441C145.436 10.9236 146.3 10.7628 146.52 11.2454C146.581 11.3805 146.578 11.5495 146.681 11.6556C146.784 11.7618 146.977 11.7602 147.136 11.786C147.764 11.8889 148.069 12.6161 148.607 12.9588C149.059 13.2467 149.641 13.2403 150.127 13.4655C150.399 13.591 150.639 13.7873 150.932 13.8693C151.225 13.9514 151.542 13.9079 151.849 13.916C151.882 13.9129 151.915 13.9166 151.946 13.9268C151.977 13.9371 152.006 13.9536 152.031 13.9755C152.05 14.0047 152.062 14.0376 152.068 14.072C152.073 14.1064 152.071 14.1415 152.061 14.175C151.912 15.1265 151.518 16.0227 150.917 16.7753C150.316 17.5279 149.529 18.1111 148.634 18.4672C148.531 18.5006 148.433 18.5483 148.343 18.6088C148.069 18.8131 148.021 19.2523 147.711 19.3971C147.599 19.4366 147.478 19.4442 147.362 19.4192C147.246 19.3942 147.139 19.3376 147.053 19.2555C146.881 19.0906 146.72 18.9155 146.57 18.7311C146.286 18.435 145.914 18.239 145.51 18.1728C145.136 18.1133 144.718 18.1567 144.417 17.9283C144.294 17.8138 144.179 17.6907 144.073 17.5599C143.848 17.351 143.581 17.192 143.291 17.0933C142.498 16.7802 141.659 16.5966 140.808 16.5496C140.016 16.5061 139.199 16.5769 138.451 16.3195C138.256 16.2598 138.076 16.1582 137.925 16.0219C137.763 15.8479 137.643 15.6394 137.574 15.4122C137.301 14.6231 137.245 13.7751 137.413 12.9572Z" fill="#0069F0"/>
<path d="M141.294 8.5185C141.072 8.4992 140.85 8.52655 140.626 8.5185C140.364 8.5185 140.105 8.45415 139.843 8.45255C139.427 8.45957 139.025 8.59896 138.695 8.85043C138.364 9.10189 138.123 9.45228 138.005 9.85058C137.983 9.9142 137.979 9.98273 137.994 10.0485C138.003 10.0809 138.023 10.1092 138.05 10.1281C138.078 10.147 138.112 10.1553 138.145 10.1514C138.233 9.91397 138.346 9.68684 138.483 9.47412C138.734 9.13441 139.09 8.88677 139.495 8.76948C139.9 8.65572 140.326 8.64027 140.737 8.72443C140.908 8.7566 141.077 8.80326 141.244 8.84831L142.049 9.07032C142.197 9.11054 142.345 9.15076 142.489 9.20385C142.601 9.24568 142.79 9.39851 142.9 9.40494C143.048 9.40494 142.927 9.27624 142.861 9.18937C142.731 9.01039 142.547 8.877 142.337 8.80809C142.002 8.66971 141.652 8.57247 141.294 8.5185Z" fill="#0069F0"/>
<path d="M139.27 17.5647C139.075 18.1889 138.881 18.8147 138.636 19.4212C138.199 20.476 137.648 21.4799 136.993 22.4152C136.571 23.0312 136.118 23.6251 135.635 24.1945C135.03 24.9072 134.348 25.6247 134.142 26.5353C134.018 27.0614 134.06 27.6116 134.008 28.1441C133.957 28.6766 133.782 29.2509 133.347 29.5727C133.035 29.8027 132.638 29.8719 132.256 29.9314C131.984 29.9765 131.643 29.9894 131.5 29.7529C131.451 29.656 131.425 29.5492 131.424 29.4408L131.36 28.6541C131.346 28.4932 131.284 28.2663 131.116 28.2583C130.947 28.2503 130.858 28.4771 130.713 28.5801C130.52 28.7152 130.231 28.5801 130.124 28.3757C130.036 28.1545 130.03 27.909 130.108 27.684C130.226 27.2363 130.436 26.8184 130.727 26.458C131.017 26.0975 131.38 25.8026 131.793 25.5925C132.08 25.4754 132.355 25.3322 132.615 25.1646C132.878 24.9357 133.097 24.6596 133.259 24.3506C134.752 21.8923 136.253 19.4212 137.307 16.7458C137.515 16.2677 137.655 15.7631 137.724 15.2464C137.775 14.7204 137.695 14.1911 137.659 13.6634C137.597 12.716 137.685 11.7647 137.92 10.8448C137.971 10.6023 138.062 10.3701 138.19 10.1579C138.623 9.49987 139.638 9.40174 140.282 9.85702C140.519 10.0392 140.716 10.2687 140.86 10.531C141.003 10.7933 141.091 11.0826 141.117 11.3805C141.164 11.913 140.855 12.4665 140.7 12.9636C140.222 14.4984 139.745 16.0321 139.27 17.5647Z" fill="#A1616A"/>
<path d="M130.26 3.81443C130.235 3.56346 130.461 3.33179 130.716 3.17091C130.986 3.02911 131.245 2.8678 131.49 2.68828C131.719 2.4904 131.843 2.2346 132.073 2.03511C132.332 1.83729 132.626 1.69093 132.94 1.60396C133.609 1.36879 134.31 1.24224 135.019 1.22911C135.737 1.22911 136.467 1.38999 137.008 1.75518C137.139 1.83735 137.254 1.94382 137.346 2.0689C137.431 2.22334 137.485 2.39263 137.506 2.56762C137.635 3.1074 137.809 3.63535 138.026 4.14584C138.25 4.71374 138.488 5.30255 139.014 5.74175C139.577 6.20991 140.438 6.48018 140.81 7.04808C140.85 7.09828 140.879 7.15721 140.893 7.22027C140.908 7.28334 140.907 7.34884 140.892 7.41167C140.839 7.55646 140.668 7.65299 140.51 7.74308C139.595 8.26754 138.808 8.94806 138.401 9.76049C137.994 10.5729 138.008 11.5302 138.586 12.2782C138.798 12.555 139.091 12.8831 138.884 13.1615C138.562 13.5846 137.486 13.3416 137.235 13.7905C137.156 13.9321 137.202 14.0962 137.201 14.2506C137.201 14.7204 136.75 15.1371 136.202 15.3542C135.653 15.5714 135.017 15.6229 134.399 15.6503C134.235 15.2816 134.219 14.8641 134.354 14.4839C134.395 14.4024 134.412 14.3107 134.401 14.22C134.356 14.1179 134.284 14.0297 134.194 13.9642C133.534 13.3416 133.672 12.423 134.07 11.6814C134.467 10.9397 135.083 10.2624 135.313 9.48217C135.426 9.09446 135.428 8.65848 135.119 8.33833C134.943 8.18306 134.753 8.04413 134.552 7.92326C134.192 7.67937 133.915 7.33141 133.757 6.92582C133.572 6.41261 133.597 5.79967 133.059 5.45539C132.543 5.13363 131.817 5.22533 131.246 5.00493C130.808 4.84888 130.297 4.18123 130.26 3.81443Z" fill="#464353"/>
<path d="M76.577 17.4054C76.4563 18.7198 77.4506 19.9956 77.161 21.2826C77.0983 21.5577 76.9808 21.8183 76.9374 22.0967C76.8167 22.8608 77.272 23.5832 77.7081 24.2235L81.4458 29.7094C81.5966 29.95 81.776 30.1715 81.98 30.369C82.696 31.0125 83.7676 30.9369 84.7056 31.1284C85.3653 31.2614 85.9884 31.5358 86.5318 31.9328C86.544 31.9417 86.5544 31.9529 86.5622 31.9659C86.5701 31.9788 86.5753 31.9932 86.5775 32.0082C86.5798 32.0231 86.579 32.0384 86.5753 32.0531C86.5716 32.0677 86.565 32.0815 86.5559 32.0936C86.4015 32.306 86.1963 32.4761 85.959 32.5886C85.7218 32.701 85.4601 32.7521 85.198 32.7372C85.0998 32.8659 85.198 33.0589 85.3331 33.149C85.5342 33.289 85.8158 33.326 85.8512 33.6654C85.8641 33.784 85.8399 33.9038 85.782 34.0081C85.6314 34.2383 85.3971 34.401 85.1288 34.4618C83.8416 34.8575 82.4353 34.1625 81.4667 33.2166C80.4981 32.2706 79.803 31.0769 78.8521 30.1132C78.3259 29.5807 77.7258 29.1254 77.1852 28.609C76.1039 27.5778 75.2624 26.3261 74.4499 25.0697C74.1842 24.7053 73.9839 24.2976 73.8578 23.8647C73.758 23.4384 73.8031 22.9847 73.6872 22.5616C73.536 22.005 73.1305 21.5625 72.791 21.096C72.1281 20.1822 71.6856 19.0657 71.7725 17.9396C71.8594 16.8134 72.5577 15.7017 73.6228 15.3237C73.9521 15.1925 74.3147 15.1705 74.6574 15.2609C75.0919 15.3945 75.412 15.7548 75.7113 16.0991L76.4193 16.9196C76.5975 17.0991 76.7381 17.3125 76.8328 17.547C76.8783 17.665 76.8889 17.7936 76.8632 17.9174C76.8375 18.0413 76.7767 18.1551 76.688 18.2452" fill="#FBBEBE"/>
<path opacity="0.05" d="M76.577 17.4054C76.4563 18.7198 77.4506 19.9956 77.161 21.2826C77.0983 21.5577 76.9808 21.8183 76.9374 22.0967C76.8167 22.8608 77.272 23.5832 77.7081 24.2235L81.4458 29.7094C81.5966 29.95 81.776 30.1715 81.98 30.369C82.696 31.0125 83.7676 30.9369 84.7056 31.1284C85.3653 31.2614 85.9884 31.5358 86.5318 31.9328C86.544 31.9417 86.5544 31.9529 86.5622 31.9659C86.5701 31.9788 86.5753 31.9932 86.5775 32.0082C86.5798 32.0231 86.579 32.0384 86.5753 32.0531C86.5716 32.0677 86.565 32.0815 86.5559 32.0936C86.4015 32.306 86.1963 32.4761 85.959 32.5886C85.7218 32.701 85.4601 32.7521 85.198 32.7372C85.0998 32.8659 85.198 33.0589 85.3331 33.149C85.5342 33.289 85.8158 33.326 85.8512 33.6654C85.8641 33.784 85.8399 33.9038 85.782 34.0081C85.6314 34.2383 85.3971 34.401 85.1288 34.4618C83.8416 34.8575 82.4353 34.1625 81.4667 33.2166C80.4981 32.2706 79.803 31.0769 78.8521 30.1132C78.3259 29.5807 77.7258 29.1254 77.1852 28.609C76.1039 27.5778 75.2624 26.3261 74.4499 25.0697C74.1842 24.7053 73.9839 24.2976 73.8578 23.8647C73.758 23.4384 73.8031 22.9847 73.6872 22.5616C73.536 22.005 73.1305 21.5625 72.791 21.096C72.1281 20.1822 71.6856 19.0657 71.7725 17.9396C71.8594 16.8134 72.5577 15.7017 73.6228 15.3237C73.9521 15.1925 74.3147 15.1705 74.6574 15.2609C75.0919 15.3945 75.412 15.7548 75.7113 16.0991L76.4193 16.9196C76.5975 17.0991 76.7381 17.3125 76.8328 17.547C76.8783 17.665 76.8889 17.7936 76.8632 17.9174C76.8375 18.0413 76.7767 18.1551 76.688 18.2452" fill="black"/>
<path d="M73.7483 51.2382C74.5641 51.7353 75.581 51.7659 76.5303 51.65C76.6832 51.6307 76.865 51.6195 76.9631 51.7369C77.1047 51.909 76.9374 52.16 76.7636 52.2984C76.203 52.7187 75.5447 52.9895 74.8505 53.0851C74.2312 53.1723 73.6063 53.2137 72.9809 53.2089C71.2753 53.2379 69.5601 53.2669 67.8707 53.0207C67.7733 53.0137 67.6784 52.9863 67.5923 52.9403C67.4849 52.8626 67.4098 52.748 67.3815 52.6185C67.2657 52.1809 67.4894 51.708 67.8256 51.4039C68.1619 51.0998 68.5947 50.9213 69.0163 50.7604L70.5014 50.1828C70.8489 50.0477 71.4073 49.6873 71.7886 49.7147C72.4853 49.7694 73.1578 50.8923 73.7483 51.2382Z" fill="#3F3D56"/>
<path opacity="0.05" d="M73.7483 51.2382C74.5641 51.7353 75.581 51.7659 76.5303 51.65C76.6832 51.6307 76.865 51.6195 76.9631 51.7369C77.1047 51.909 76.9374 52.16 76.7636 52.2984C76.203 52.7187 75.5447 52.9895 74.8505 53.0851C74.2312 53.1723 73.6063 53.2137 72.9809 53.2089C71.2753 53.2379 69.5601 53.2669 67.8707 53.0207C67.7733 53.0137 67.6784 52.9863 67.5923 52.9403C67.4849 52.8626 67.4098 52.748 67.3815 52.6185C67.2657 52.1809 67.4894 51.708 67.8256 51.4039C68.1619 51.0998 68.5947 50.9213 69.0163 50.7604L70.5014 50.1828C70.8489 50.0477 71.4073 49.6873 71.7886 49.7147C72.4853 49.7694 73.1578 50.8923 73.7483 51.2382Z" fill="black"/>
<path d="M72.7122 31.537C73.3284 32.3591 73.9688 33.3067 73.8159 34.325C73.7339 34.8736 73.4266 35.3579 73.2013 35.8646C72.9195 36.5619 72.7108 37.2865 72.5786 38.0268C72.3469 39.1031 72.1152 40.1826 71.9736 41.275C71.8127 42.5089 72.5706 46.0804 72.6414 47.3224C72.6575 47.6216 72.6929 47.9466 72.9004 48.1622C72.9825 48.2474 73.0919 48.3231 73.1273 48.4276C73.1496 48.5346 73.1325 48.646 73.079 48.7413C72.7299 49.5264 72.0171 50.1104 71.2254 50.445C70.4338 50.7797 68.5078 51.3556 67.6486 51.3846C67.5347 51.3979 67.4192 51.383 67.3124 51.3411C67.1968 51.2713 67.1057 51.1673 67.0517 51.0435C66.4322 49.8562 67.0276 45.6348 67.0179 44.2963C67.0179 43.1782 66.746 42.0681 66.7959 40.9516C66.8345 40.0555 67.0742 39.1819 67.1627 38.2875C67.3059 36.8219 67.0356 35.3514 66.7669 33.9035C66.561 32.7951 66.3534 31.685 66.0895 30.5878C65.9286 29.9202 65.742 29.2445 65.3735 28.6573C65.0823 28.1956 64.6865 27.8111 64.355 27.3783C63.4317 26.1691 63.0214 24.6452 63.2126 23.1359C63.2319 22.9863 65.3574 23.6733 65.5409 23.7537C66.303 24.0778 67.0044 24.5293 67.6149 25.089C68.0976 25.5555 68.4934 26.1814 68.923 26.7058C69.5312 27.4459 70.1313 28.1923 70.7234 28.9452C71.396 29.8043 72.0589 30.6683 72.7122 31.537Z" fill="#464353"/>
<path opacity="0.05" d="M72.7121 31.4871C73.3284 32.3108 73.9688 33.2568 73.8159 34.2768C73.7339 34.8254 73.4265 35.308 73.2013 35.8148C72.9195 36.512 72.7108 37.2366 72.5786 37.977C72.3469 39.0549 72.1152 40.1327 71.9736 41.2251C71.8127 42.4606 72.5706 46.0305 72.6414 47.2741C72.6574 47.5734 72.6928 47.8983 72.9004 48.1139C72.9825 48.1976 73.0919 48.2667 73.1273 48.3778C73.1496 48.4847 73.1325 48.5962 73.079 48.6915C72.7298 49.4766 72.0171 50.0622 71.2254 50.3968C70.4338 50.7314 68.5078 51.0403 67.6486 51.066C67.5347 51.0794 67.4192 51.0645 67.3124 51.0226C67.1968 50.9527 67.1057 50.8487 67.0517 50.725C66.4322 49.5377 67.0276 45.5849 67.0179 44.2464C67.0179 43.1283 66.746 42.0198 66.7959 40.9017C66.8345 40.0056 67.0742 39.1321 67.1627 38.2376C67.3059 36.7736 67.0356 35.3016 66.7669 33.8553C66.561 32.7452 66.3534 31.6351 66.0895 30.5396C65.9286 29.8703 65.742 29.1946 65.3735 28.609C65.0823 28.1489 64.6865 27.7628 64.355 27.3316C63.4313 26.122 63.021 24.5975 63.2126 23.0877C63.2319 22.9397 65.3574 23.6266 65.5409 23.707C66.3037 24.0299 67.0052 24.4816 67.6149 25.0423C68.0976 25.5089 68.4934 26.1347 68.923 26.6511C69.5312 27.3912 70.1313 28.1376 70.7234 28.8906C71.396 29.7507 72.0589 30.6162 72.7121 31.4871Z" fill="black"/>
<path d="M79.581 13.4366C81.4942 13.4366 83.0451 11.8858 83.0451 9.97285C83.0451 8.0599 81.4942 6.50914 79.581 6.50914C77.6677 6.50914 76.1168 8.0599 76.1168 9.97285C76.1168 11.8858 77.6677 13.4366 79.581 13.4366Z" fill="#FBBEBE"/>
<path d="M76.4627 9.82807C76.1434 10.3393 75.7244 10.7809 75.2307 11.1267C74.737 11.4725 74.1786 11.7153 73.5891 11.8407L73.8497 12.785C74.3002 14.4147 74.8054 16.1377 76.0653 17.2671C75.9269 16.7153 76.1055 16.1232 76.4161 15.647C76.7503 15.1857 77.146 14.7722 77.5922 14.4179L79.5858 12.6837C79.646 12.6406 79.6969 12.5859 79.7354 12.5228C79.7845 12.401 79.7845 12.2649 79.7354 12.1431C79.4812 11.3532 78.7555 10.8561 78.1699 10.3268C77.8735 10.05 77.6085 9.74142 77.3798 9.40657C76.9712 8.83706 76.725 9.40496 76.4627 9.82807Z" fill="#FBBEBE"/>
<path d="M84.1457 6.49145L84.2229 5.84794C83.6758 5.98951 83.1578 5.52618 82.8086 5.04355C82.4594 4.56091 82.1344 3.99462 81.6019 3.79513C80.9583 3.5522 80.2696 3.94153 79.6517 4.26329C78.9592 4.64895 78.1987 4.89748 77.412 4.99528C77.2866 5.00031 77.1623 5.02085 77.042 5.05642C76.6397 5.1996 76.4499 5.69993 76.3903 6.16165C76.3308 6.62337 76.3485 7.10601 76.149 7.51464C75.9993 7.82353 75.7403 8.05519 75.5826 8.35925C75.1594 9.17812 75.5681 10.2978 75.1208 11.1022L76.231 10.0855C76.334 9.99217 76.4772 9.89403 76.5882 9.97286C76.6992 10.0517 76.6848 10.1707 76.7202 10.2801C76.828 10.6019 77.2238 10.6904 77.5118 10.5665C77.7998 10.4426 78.0074 10.1691 78.2165 9.92299C78.7073 9.34383 79.2929 8.83545 79.9864 8.5877C80.2872 8.47237 80.6092 8.42261 80.9308 8.44175C81.2524 8.46089 81.5662 8.5485 81.8512 8.69871C82.3693 8.99151 82.7491 9.67363 83.3846 9.69776C84.2551 9.72994 84.6171 8.10989 85.0194 7.4696C84.8723 7.35833 84.7689 7.19905 84.7272 7.01946C84.6854 6.83987 84.708 6.65132 84.7909 6.48663C84.7249 6.45928 84.1569 6.39171 84.1457 6.49145Z" fill="#464353"/>
<path d="M69.7082 51.2092C70.3917 51.8214 71.2813 52.153 72.1989 52.1375C72.4322 52.1375 72.7556 52.1825 72.7572 52.4158C72.7518 52.4852 72.7279 52.5518 72.688 52.6089C72.3983 53.0922 71.9397 53.451 71.4008 53.616C70.9004 53.7672 70.3678 53.7431 69.8465 53.7157L68.326 53.6369C68.038 53.6224 67.75 53.6063 67.4636 53.5725C67.1772 53.5387 66.8683 53.476 66.5706 53.4326C65.837 53.3278 65.0952 53.2928 64.355 53.328C64.1603 53.336 63.9319 53.328 63.8112 53.1816C63.6905 53.0352 63.7549 52.7649 63.7983 52.5509C63.8884 52.1101 63.7983 51.6484 63.882 51.206C64.0284 50.4306 64.6961 49.8353 65.4347 49.5538C66.1185 49.2932 67.3317 48.9955 67.9785 49.4283C68.6768 49.8948 69.0935 50.6542 69.7082 51.2092Z" fill="#3F3D56"/>
<path d="M68.2021 25.2097C68.067 25.8532 67.4491 26.3358 67.4314 26.9874C67.4169 27.5086 67.7886 27.9526 68.0557 28.3934C68.3112 28.8568 68.5265 29.3412 68.6993 29.8413C69.2055 31.137 69.8331 32.3818 70.5738 33.5592C70.931 34.1239 71.33 34.7385 71.248 35.4029C71.1918 35.713 71.0829 36.0112 70.9262 36.2845L69.8562 38.4097C69.6213 38.8341 69.4382 39.2851 69.3107 39.7531C69.2174 40.1569 69.2078 40.5752 69.1498 40.987C68.9809 42.2901 68.3695 43.6029 68.7315 44.8674C68.7621 44.9752 68.8763 45.1071 68.96 45.0283C68.6076 45.6879 68.3164 46.3539 68.3502 47.102C68.3646 47.4945 68.4853 47.9064 68.3389 48.27C68.257 48.4119 68.2024 48.568 68.178 48.7301C68.178 48.8379 68.2279 48.9392 68.2391 49.0518C68.2697 49.3527 67.993 49.6037 67.7066 49.6954C67.4202 49.7871 67.1064 49.7855 66.8168 49.8707C66.2601 50.0316 65.8627 50.5142 65.3848 50.8489C64.9014 51.1844 64.3302 51.3706 63.742 51.3846C63.658 51.3935 63.5733 51.3767 63.499 51.3363C63.4571 51.2995 63.4234 51.2542 63.4001 51.2035C63.3768 51.1528 63.3645 51.0977 63.3639 51.0419C63.3385 50.7755 63.3789 50.507 63.4816 50.2598C63.5843 50.0127 63.7461 49.7946 63.9528 49.6246C64.0432 49.5673 64.1183 49.4889 64.1716 49.3961C64.1975 49.3134 64.2041 49.226 64.1909 49.1403C64.104 47.9713 64.125 46.7967 64.2537 45.6316C64.3117 45.2619 64.3306 44.8871 64.31 44.5135C64.2794 44.203 64.1861 43.8941 64.2199 43.5836C64.2537 43.2731 64.4113 42.9932 64.5047 42.6939C64.6656 42.163 64.6253 41.5935 64.6414 41.0369C64.6704 40.0716 64.8908 39.1256 65.1113 38.1861C65.1981 37.8177 65.2947 37.43 65.5553 37.1565C65.7774 36.9248 66.1378 36.7028 66.0541 36.3923C66.0075 36.2781 65.9379 36.1746 65.8498 36.0883C65.7464 35.9584 65.6703 35.8088 65.6264 35.6487C65.5824 35.4886 65.5714 35.3213 65.594 35.1568C65.4999 35.1818 65.3999 35.1729 65.3117 35.1318C65.2235 35.0906 65.1525 35.0197 65.1113 34.9315C63.3719 34.1127 61.9657 32.4717 61.3462 30.6506C61.3114 30.5163 61.2572 30.3879 61.1853 30.2693C61.0244 30.0441 60.7444 29.9475 60.4967 29.822C59.7179 29.4311 59.1789 28.6959 58.6849 27.9768C58.3985 27.5601 58.1105 27.1289 57.9866 26.6367C57.9189 26.3194 57.8865 25.9957 57.8901 25.6714L57.8466 23.995C57.8379 23.8867 57.8488 23.7777 57.8788 23.6733C57.9204 23.5731 57.9823 23.4827 58.0606 23.4078C58.5341 22.9033 59.1575 22.5648 59.8386 22.4425C60.2939 22.3621 60.7605 22.3766 61.2223 22.3396C62.1185 22.264 63.0035 21.9873 63.9013 22.0516C65.3092 22.1562 66.5642 23.1311 67.2271 24.3779C67.4556 24.8219 67.7017 25.2016 68.2021 25.2097Z" fill="#464353"/>
<path d="M76.0219 14.3085C76.0019 14.5671 76.037 14.827 76.1248 15.0711C76.2326 15.306 76.5094 15.4878 76.7507 15.3928C76.6767 15.232 76.8698 15.0421 77.05 15.0614C77.1381 15.0813 77.2199 15.1223 77.2886 15.1809C77.3573 15.2395 77.4107 15.3139 77.4442 15.3977C77.564 15.6368 77.6046 15.9078 77.5601 16.1715C77.5021 16.4932 77.3123 16.815 77.3622 17.1448C77.4024 17.4183 77.6035 17.6918 77.4957 17.9492C77.4264 18.0649 77.3395 18.1691 77.2383 18.2581C77.0972 18.4316 77.0281 18.6527 77.0452 18.8756C77.0622 19.0986 77.1642 19.3066 77.33 19.4566L74.6301 19.5113C74.7298 19.9618 74.5271 20.4235 74.2954 20.8241C73.6472 21.9253 72.7528 22.8615 71.6823 23.5592C70.6118 24.257 69.3942 24.6975 68.1249 24.8461C68.1935 24.8862 68.2523 24.9411 68.2971 25.0067C68.342 25.0723 68.3717 25.147 68.3841 25.2255C68.3966 25.304 68.3915 25.3842 68.3692 25.4605C68.3469 25.5367 68.308 25.6071 68.2552 25.6665C68.0348 25.8837 67.6631 25.858 67.388 25.7148C67.1128 25.5716 66.8972 25.34 66.6446 25.1598C66.2017 24.8449 65.6605 24.6993 65.1193 24.7495C64.7814 24.7817 64.4532 24.8895 64.1137 24.9104C63.1145 24.9635 62.2537 24.2444 61.2979 23.9451C60.5964 23.7296 59.8016 23.7312 59.2062 23.2936C58.9536 23.1054 58.7445 22.7949 58.8185 22.4892C58.8825 22.313 58.9822 22.152 59.1113 22.0162C59.4492 21.5786 59.6487 21.0509 59.8917 20.5538C60.3758 19.5727 61.0394 18.6909 61.8482 17.954C62.4572 17.421 63.1023 16.9308 63.779 16.4868C63.943 16.3636 64.1181 16.2559 64.3019 16.1651C64.5477 16.085 64.7875 15.9877 65.0195 15.8739C65.3413 15.6744 65.5199 15.3221 65.7645 15.0373C66.2987 14.4131 67.1209 14.1267 67.7806 13.636C68.2231 13.3062 68.614 12.8719 69.1418 12.7126C69.3976 12.6354 69.6728 12.6289 69.9286 12.5517C70.5127 12.3748 70.9374 11.8567 71.5086 11.6476C71.9624 11.4867 72.4612 11.5253 72.9406 11.4658C73.468 11.4004 73.9719 11.2089 74.4096 10.9075C74.5552 10.7908 74.718 10.6974 74.8923 10.6308C75.6148 10.4104 75.6743 11.757 75.7419 12.2251C75.8417 12.9169 76.0219 13.6103 76.0219 14.3085Z" fill="#0069F0"/>
<path d="M75.3155 18.8292C75.1948 20.1436 76.1876 21.4193 75.8996 22.7064C75.8368 22.9815 75.7177 23.2421 75.6743 23.5188C75.5552 24.283 76.0106 25.0069 76.4466 25.6472L80.1843 31.1316C80.3343 31.3728 80.5137 31.5944 80.7185 31.7912C81.4345 32.4267 82.5061 32.3607 83.4441 32.5505C84.1037 32.6842 84.7266 32.9586 85.2704 33.3549C85.2941 33.3737 85.3097 33.4007 85.3142 33.4306C85.3187 33.4605 85.3116 33.4909 85.2945 33.5158C85.1399 33.7279 84.9346 33.8979 84.6974 34.0103C84.4602 34.1227 84.1986 34.174 83.9365 34.1593C83.8384 34.288 83.9365 34.4811 84.0717 34.5712C84.2728 34.7095 84.5544 34.7465 84.5882 35.0876C84.6023 35.2061 84.5786 35.326 84.5206 35.4303C84.3696 35.6601 84.1355 35.8227 83.8673 35.8839C82.5801 36.2797 81.1739 35.5847 80.2052 34.6387C79.2366 33.6928 78.5415 32.4991 77.5906 31.5354C77.0645 31.0029 76.4643 30.546 75.9237 30.0296C74.8425 28.9999 74.0009 27.7467 73.1884 26.4902C72.9227 26.1259 72.7224 25.7182 72.5963 25.2853C72.4965 24.8573 72.5416 24.4053 72.4257 23.9805C72.2745 23.4255 71.8674 22.9831 71.5295 22.5165C70.8666 21.6028 70.4225 20.4863 70.511 19.3601C70.5995 18.234 71.2946 17.1255 72.3566 16.7426C72.6858 16.6115 73.0484 16.5895 73.3911 16.6799C73.8272 16.8134 74.1474 17.1738 74.445 17.518L75.1546 18.3369C75.3324 18.5174 75.4729 18.7312 75.5681 18.966C75.6138 19.084 75.6243 19.2128 75.5984 19.3367C75.5724 19.4607 75.511 19.5744 75.4217 19.6642" fill="#FBBEBE"/>
<path d="M73.4249 13.4285C73.9173 13.4575 74.4563 13.5073 74.8038 13.8565C74.949 14.0178 75.0664 14.2021 75.1514 14.4018C75.4893 15.0872 75.8159 15.8047 75.8417 16.5689C75.861 17.1802 75.6808 17.7771 75.5906 18.382C75.5134 18.8839 75.7097 19.3971 75.7515 19.9039C75.1417 19.7189 74.3372 19.4647 73.7854 19.1477C73.4221 18.911 73.0362 18.711 72.6333 18.5509C72.0476 18.3546 71.0597 18.6909 70.5062 18.9643C70.4756 18.5734 70.7701 17.8913 70.7395 17.4987C70.7341 17.3344 70.7042 17.1717 70.651 17.0161C70.5683 16.8509 70.4697 16.6941 70.3566 16.5479C70.1432 16.2026 70.0449 15.7985 70.0758 15.3938C70.1067 14.989 70.2653 14.6045 70.5287 14.2957C71.0227 13.739 71.7982 13.5299 72.5384 13.4446C73.004 13.3902 73.4732 13.3735 73.9414 13.3947" fill="#0069F0"/>
<path d="M164.166 48.7783L160.948 80.954L50.0881 126L12.5984 90.7676L9.86315 57.6267L115.574 26.738L164.166 48.7783Z" fill="#DFE6F5"/>
<path opacity="0.1" d="M50.0881 126L12.5984 90.7676L9.86315 57.6267L49.1227 89.6415L50.0881 126Z" fill="black"/>
<path opacity="0.05" d="M164.166 48.7784L160.948 80.954L50.088 126L49.1227 89.6415L164.166 48.7784Z" fill="black"/>
<path d="M13.0007 60.1203L116.298 30.8404L159.098 50.6284L49.0422 89.561L13.0007 60.1203Z" fill="#A7ADB8"/>
<path d="M134.641 13.5604L133.371 13.6891L100.041 17.0418C98.4525 17.1998 96.9708 17.9137 95.8576 19.0577L77.6759 37.7646L36.846 79.7619L48.9618 89.6415L78.1779 79.2648L90.9163 74.7441L126.736 31.8748L138.026 18.3611C138.026 18.3611 138.319 14.5177 134.641 13.5604ZM100.598 34.3282C99.0611 35.2211 97.3797 35.197 96.8455 34.2752C96.4835 33.6509 96.7409 32.7742 97.4215 31.9955C97.7765 31.5939 98.1943 31.2527 98.6588 30.9852C99.9299 30.2468 101.296 30.1374 102.038 30.6425C102.191 30.7445 102.32 30.8798 102.414 31.0383C102.947 31.9649 102.134 33.437 100.598 34.3282Z" fill="#454B69"/>
<path opacity="0.1" d="M134.641 13.5604L133.371 13.6891C134.927 15.3253 134.118 15.7966 134.118 15.7966L121.89 29.674L78.1779 79.2648L90.9163 74.7441L126.736 31.8748L138.026 18.3611C138.026 18.3611 138.319 14.5177 134.641 13.5604Z" fill="black"/>
<path d="M98.6588 30.9852C98.1947 31.2512 97.7768 31.5908 97.4215 31.9907L102.035 30.6425C101.298 30.1422 99.9299 30.2516 98.6588 30.9852Z" fill="#DFE6F5"/>
<path d="M96.8455 34.2752C97.3813 35.197 99.0611 35.2211 100.598 34.3282C102.134 33.4354 102.947 31.9649 102.411 31.0431C102.317 30.8846 102.188 30.7493 102.034 30.6473L97.4215 31.9955C96.7409 32.7742 96.4835 33.6509 96.8455 34.2752Z" fill="#DFE6F5"/>
<path opacity="0.1" d="M120.661 106.904C124.162 105.149 126.772 103.271 126.49 102.709C126.208 102.146 123.141 103.113 119.64 104.867C116.139 106.622 113.529 108.5 113.811 109.062C114.093 109.625 117.16 108.658 120.661 106.904Z" fill="#0069F0"/>
<path d="M120.19 105.921C120.528 105.921 120.802 105.562 120.802 105.12C120.802 104.677 120.528 104.318 120.19 104.318C119.853 104.318 119.579 104.677 119.579 105.12C119.579 105.562 119.853 105.921 120.19 105.921Z" fill="#3F3D56"/>
<path d="M120.19 104.941C120.528 104.941 120.802 104.582 120.802 104.14C120.802 103.697 120.528 103.339 120.19 103.339C119.853 103.339 119.579 103.697 119.579 104.14C119.579 104.582 119.853 104.941 120.19 104.941Z" fill="#3F3D56"/>
<path d="M120.19 103.963C120.528 103.963 120.802 103.604 120.802 103.162C120.802 102.719 120.528 102.361 120.19 102.361C119.853 102.361 119.579 102.719 119.579 103.162C119.579 103.604 119.853 103.963 120.19 103.963Z" fill="#3F3D56"/>
<path d="M120.19 102.985C120.528 102.985 120.802 102.626 120.802 102.184C120.802 101.741 120.528 101.382 120.19 101.382C119.853 101.382 119.579 101.741 119.579 102.184C119.579 102.626 119.853 102.985 120.19 102.985Z" fill="#3F3D56"/>
<path d="M120.19 102.007C120.528 102.007 120.802 101.648 120.802 101.205C120.802 100.763 120.528 100.404 120.19 100.404C119.853 100.404 119.579 100.763 119.579 101.205C119.579 101.648 119.853 102.007 120.19 102.007Z" fill="#3F3D56"/>
<path d="M120.19 101.028C120.528 101.028 120.802 100.67 120.802 100.227C120.802 99.7848 120.528 99.4261 120.19 99.4261C119.853 99.4261 119.579 99.7848 119.579 100.227C119.579 100.67 119.853 101.028 120.19 101.028Z" fill="#3F3D56"/>
<path d="M120.19 100.05C120.528 100.05 120.802 99.6916 120.802 99.2491C120.802 98.8066 120.528 98.448 120.19 98.448C119.853 98.448 119.579 98.8066 119.579 99.2491C119.579 99.6916 119.853 100.05 120.19 100.05Z" fill="#3F3D56"/>
<path d="M122.48 92.5534C122.563 92.4465 122.639 92.3342 122.707 92.2171L121.098 91.9533L122.837 91.9662C123.003 91.6035 123.094 91.2107 123.104 90.8119C123.113 90.413 123.041 90.0164 122.892 89.6463L120.56 90.8545L122.712 89.2747C122.509 88.9288 122.238 88.6282 121.914 88.3915C121.591 88.1547 121.222 87.9869 120.831 87.8983C120.44 87.8097 120.035 87.8024 119.641 87.8766C119.247 87.9508 118.872 88.1051 118.541 88.3299C118.209 88.5547 117.926 88.8452 117.711 89.1834C117.496 89.5217 117.353 89.9005 117.29 90.2964C117.227 90.6923 117.246 91.0968 117.346 91.4851C117.446 91.8733 117.624 92.2369 117.87 92.5534C117.744 92.7183 117.636 92.8963 117.548 93.0843L119.64 94.167L117.416 93.4205C117.26 93.8821 117.222 94.3754 117.304 94.8556C117.386 95.3359 117.587 95.7882 117.888 96.1715C117.548 96.6037 117.337 97.1227 117.278 97.6693C117.219 98.2159 117.316 98.768 117.556 99.2625C117.796 99.7569 118.171 100.174 118.637 100.466C119.103 100.757 119.641 100.912 120.191 100.912C120.741 100.912 121.28 100.757 121.746 100.466C122.212 100.174 122.586 99.7569 122.827 99.2625C123.067 98.768 123.163 98.2159 123.104 97.6693C123.046 97.1227 122.834 96.6037 122.494 96.1715C122.9 95.655 123.12 95.0174 123.12 94.3608C123.12 93.7042 122.9 93.0667 122.494 92.5501L122.48 92.5534Z" fill="#0069F0"/>
<path opacity="0.1" d="M117.248 94.3713C117.247 95.0252 117.466 95.6603 117.87 96.1747C117.53 96.6069 117.319 97.1259 117.26 97.6725C117.202 98.2191 117.298 98.7712 117.538 99.2657C117.778 99.7601 118.153 100.177 118.619 100.469C119.085 100.76 119.624 100.915 120.174 100.915C120.723 100.915 121.262 100.76 121.728 100.469C122.194 100.177 122.569 99.7601 122.809 99.2657C123.049 98.7712 123.145 98.2191 123.087 97.6725C123.028 97.1259 122.817 96.6069 122.477 96.1747C122.873 95.676 117.248 94.0351 117.248 94.3713Z" fill="black"/>
<path opacity="0.1" d="M157.489 95.7923C159.778 94.6453 161.484 93.4174 161.3 93.0496C161.115 92.6818 159.11 93.3135 156.822 94.4605C154.533 95.6074 152.827 96.8354 153.011 97.2031C153.196 97.5709 155.2 96.9393 157.489 95.7923Z" fill="#0069F0"/>
<path d="M157.183 95.1532C157.403 95.1532 157.582 94.9191 157.582 94.6303C157.582 94.3415 157.403 94.1075 157.183 94.1075C156.962 94.1075 156.784 94.3415 156.784 94.6303C156.784 94.9191 156.962 95.1532 157.183 95.1532Z" fill="#3F3D56"/>
<path d="M157.183 94.5129C157.403 94.5129 157.582 94.2788 157.582 93.99C157.582 93.7012 157.403 93.4672 157.183 93.4672C156.962 93.4672 156.784 93.7012 156.784 93.99C156.784 94.2788 156.962 94.5129 157.183 94.5129Z" fill="#3F3D56"/>
<path d="M157.183 93.8726C157.403 93.8726 157.582 93.6385 157.582 93.3497C157.582 93.061 157.403 92.8269 157.183 92.8269C156.962 92.8269 156.784 93.061 156.784 93.3497C156.784 93.6385 156.962 93.8726 157.183 93.8726Z" fill="#3F3D56"/>
<path d="M157.183 93.2339C157.403 93.2339 157.582 92.9998 157.582 92.711C157.582 92.4223 157.403 92.1882 157.183 92.1882C156.962 92.1882 156.784 92.4223 156.784 92.711C156.784 92.9998 156.962 93.2339 157.183 93.2339Z" fill="#3F3D56"/>
<path d="M157.183 92.5936C157.403 92.5936 157.582 92.3595 157.582 92.0707C157.582 91.782 157.403 91.5479 157.183 91.5479C156.962 91.5479 156.784 91.782 156.784 92.0707C156.784 92.3595 156.962 92.5936 157.183 92.5936Z" fill="#3F3D56"/>
<path d="M157.183 91.9549C157.403 91.9549 157.582 91.7208 157.582 91.432C157.582 91.1433 157.403 90.9092 157.183 90.9092C156.962 90.9092 156.784 91.1433 156.784 91.432C156.784 91.7208 156.962 91.9549 157.183 91.9549Z" fill="#3F3D56"/>
<path d="M157.183 91.3146C157.403 91.3146 157.582 91.0805 157.582 90.7917C157.582 90.503 157.403 90.2689 157.183 90.2689C156.962 90.2689 156.784 90.503 156.784 90.7917C156.784 91.0805 156.962 91.3146 157.183 91.3146Z" fill="#3F3D56"/>
<path d="M158.679 86.4142C158.734 86.345 158.783 86.2719 158.827 86.1955L157.777 86.0233H158.914C159.03 85.7709 159.09 85.4965 159.09 85.2189C159.09 84.9735 159.042 84.7303 158.95 84.503L157.426 85.2929L158.832 84.2601C158.7 84.0338 158.522 83.8371 158.311 83.6821C158.1 83.5271 157.858 83.4172 157.603 83.3592C157.347 83.3012 157.082 83.2963 156.825 83.3448C156.567 83.3933 156.322 83.4942 156.105 83.6413C155.888 83.7883 155.703 83.9783 155.563 84.1996C155.422 84.4208 155.329 84.6686 155.288 84.9275C155.247 85.1864 155.26 85.451 155.325 85.7048C155.391 85.9586 155.508 86.1962 155.669 86.403C155.584 86.5113 155.51 86.6284 155.45 86.7521L156.814 87.4616L155.366 86.9789C155.264 87.2808 155.239 87.6033 155.293 87.9174C155.347 88.2315 155.478 88.5271 155.675 88.7776C155.453 89.0601 155.314 89.3996 155.275 89.7572C155.237 90.1149 155.299 90.4762 155.456 90.7998C155.613 91.1234 155.858 91.3963 156.163 91.5873C156.468 91.7782 156.821 91.8795 157.18 91.8795C157.54 91.8795 157.893 91.7782 158.198 91.5873C158.502 91.3963 158.747 91.1234 158.905 90.7998C159.062 90.4762 159.124 90.1149 159.086 89.7572C159.047 89.3996 158.908 89.0601 158.686 88.7776C158.951 88.44 159.096 88.023 159.096 87.5935C159.096 87.164 158.951 86.7469 158.686 86.4094L158.679 86.4142Z" fill="#0069F0"/>
<path opacity="0.1" d="M155.258 87.5983C155.258 88.028 155.402 88.4453 155.669 88.7824C155.446 89.0649 155.308 89.4044 155.269 89.7621C155.23 90.1197 155.293 90.481 155.45 90.8046C155.607 91.1282 155.852 91.4011 156.157 91.5921C156.462 91.783 156.814 91.8843 157.174 91.8843C157.534 91.8843 157.886 91.783 158.191 91.5921C158.496 91.4011 158.741 91.1282 158.898 90.8046C159.055 90.481 159.118 90.1197 159.079 89.7621C159.04 89.4044 158.902 89.0649 158.679 88.7824C158.935 88.4558 155.258 87.3827 155.258 87.5983Z" fill="black"/>
<path opacity="0.1" d="M36.164 125.603C36.8408 124.926 36.0569 123.045 34.4131 121.402C32.7693 119.758 30.8882 118.974 30.2114 119.651C29.5347 120.327 30.3186 122.208 31.9624 123.852C33.6062 125.495 35.4873 126.279 36.164 125.603Z" fill="#0069F0"/>
<path d="M33.4864 122.901C34.0001 122.901 34.4164 122.356 34.4164 121.684C34.4164 121.011 34.0001 120.466 33.4864 120.466C32.9728 120.466 32.5564 121.011 32.5564 121.684C32.5564 122.356 32.9728 122.901 33.4864 122.901Z" fill="#3F3D56"/>
<path d="M33.4864 121.413C34.0001 121.413 34.4164 120.868 34.4164 120.196C34.4164 119.523 34.0001 118.978 33.4864 118.978C32.9728 118.978 32.5564 119.523 32.5564 120.196C32.5564 120.868 32.9728 121.413 33.4864 121.413Z" fill="#3F3D56"/>
<path d="M33.4864 119.924C34.0001 119.924 34.4164 119.378 34.4164 118.706C34.4164 118.033 34.0001 117.488 33.4864 117.488C32.9728 117.488 32.5564 118.033 32.5564 118.706C32.5564 119.378 32.9728 119.924 33.4864 119.924Z" fill="#3F3D56"/>
<path d="M33.4864 118.434C34.0001 118.434 34.4164 117.889 34.4164 117.216C34.4164 116.543 34.0001 115.998 33.4864 115.998C32.9728 115.998 32.5564 116.543 32.5564 117.216C32.5564 117.889 32.9728 118.434 33.4864 118.434Z" fill="#3F3D56"/>
<path d="M33.4864 116.946C34.0001 116.946 34.4164 116.401 34.4164 115.728C34.4164 115.055 34.0001 114.51 33.4864 114.51C32.9728 114.51 32.5564 115.055 32.5564 115.728C32.5564 116.401 32.9728 116.946 33.4864 116.946Z" fill="#3F3D56"/>
<path d="M33.4864 115.456C34.0001 115.456 34.4164 114.911 34.4164 114.238C34.4164 113.566 34.0001 113.02 33.4864 113.02C32.9728 113.02 32.5564 113.566 32.5564 114.238C32.5564 114.911 32.9728 115.456 33.4864 115.456Z" fill="#3F3D56"/>
<path d="M33.4864 113.968C34.0001 113.968 34.4164 113.423 34.4164 112.75C34.4164 112.077 34.0001 111.532 33.4864 111.532C32.9728 111.532 32.5564 112.077 32.5564 112.75C32.5564 113.423 32.9728 113.968 33.4864 113.968Z" fill="#3F3D56"/>
<path d="M36.9715 102.56C37.0985 102.398 37.2141 102.228 37.3175 102.05L34.8718 101.648L37.517 101.667C37.7722 101.114 37.9114 100.515 37.9261 99.9063C37.9407 99.2976 37.8305 98.6923 37.6022 98.1278L34.0528 99.9682L37.3255 97.5551C37.0197 97.0239 36.6077 96.5615 36.1151 96.1967C35.6226 95.8319 35.0601 95.5726 34.4628 95.435C33.8655 95.2973 33.2462 95.2843 32.6437 95.3967C32.0411 95.5091 31.4682 95.7445 30.9608 96.0882C30.4533 96.432 30.0222 96.8766 29.6943 97.3945C29.3664 97.9123 29.1489 98.4922 29.0552 99.0978C28.9616 99.7035 28.9938 100.322 29.15 100.915C29.3061 101.507 29.5828 102.061 29.9627 102.542C29.7642 102.794 29.5938 103.066 29.4543 103.355L32.6288 105.004L29.2499 103.868C29.0131 104.57 28.9548 105.32 29.0804 106.05C29.206 106.781 29.5114 107.468 29.9692 108.051C29.4519 108.708 29.1301 109.498 29.0406 110.33C28.9511 111.162 29.0975 112.002 29.4631 112.755C29.8286 113.507 30.3986 114.142 31.1078 114.585C31.817 115.029 32.6368 115.265 33.4736 115.265C34.3103 115.265 35.1301 115.029 35.8393 114.585C36.5485 114.142 37.1185 113.507 37.484 112.755C37.8496 112.002 37.996 111.162 37.9065 110.33C37.817 109.498 37.4952 108.708 36.978 108.051C37.596 107.265 37.9319 106.295 37.9319 105.295C37.9319 104.295 37.596 103.325 36.978 102.539L36.9715 102.56Z" fill="#0069F0"/>
<path opacity="0.1" d="M29.0086 105.311C29.0071 106.311 29.3433 107.282 29.9627 108.067C29.4454 108.724 29.1237 109.514 29.0342 110.346C28.9447 111.178 29.0911 112.018 29.4566 112.771C29.8222 113.523 30.3922 114.158 31.1014 114.602C31.8106 115.045 32.6304 115.281 33.4671 115.281C34.3038 115.281 35.1237 115.045 35.8329 114.602C36.5421 114.158 37.112 113.523 37.4776 112.771C37.8432 112.018 37.9896 111.178 37.9001 110.346C37.8106 109.514 37.4888 108.724 36.9715 108.067C37.5684 107.314 29.0086 104.816 29.0086 105.311Z" fill="black"/>
</g>
<defs>
<clipPath id="clip0">
<rect width="182" height="126" fill="white"/>
</clipPath>
</defs>
</svg>
