<svg width="183" height="159" viewBox="0 0 183 159" fill="none" xmlns="http://www.w3.org/2000/svg">
<g clip-path="url(#clip0)">
<path d="M82.3753 159C110.232 159 132.814 157.867 132.814 156.47C132.814 155.073 110.232 153.94 82.3753 153.94C54.5186 153.94 31.9363 155.073 31.9363 156.47C31.9363 157.867 54.5186 159 82.3753 159Z" fill="#E6E6E6"/>
<path d="M25.0304 49.9655C38.8543 49.9655 50.0608 38.7804 50.0608 24.9828C50.0608 11.1852 38.8543 0 25.0304 0C11.2065 0 0 11.1852 0 24.9828C0 38.7804 11.2065 49.9655 25.0304 49.9655Z" fill="#E6E6E6"/>
<path d="M25.0304 45.8017C36.5503 45.8017 45.889 36.4807 45.889 24.9827C45.889 13.4848 36.5503 4.16379 25.0304 4.16379C13.5105 4.16379 4.17172 13.4848 4.17172 24.9827C4.17172 36.4807 13.5105 45.8017 25.0304 45.8017Z" fill="#005FD8"/>
<path d="M91.5 49.9655C105.324 49.9655 116.53 38.7804 116.53 24.9828C116.53 11.1852 105.324 0 91.5 0C77.6761 0 66.4696 11.1852 66.4696 24.9828C66.4696 38.7804 77.6761 49.9655 91.5 49.9655Z" fill="#E6E6E6"/>
<path d="M91.5 45.8017C103.02 45.8017 112.359 36.4807 112.359 24.9827C112.359 13.4848 103.02 4.16379 91.5 4.16379C79.9801 4.16379 70.6414 13.4848 70.6414 24.9827C70.6414 36.4807 79.9801 45.8017 91.5 45.8017Z" fill="white"/>
<path d="M157.97 49.9655C171.794 49.9655 183 38.7804 183 24.9828C183 11.1852 171.794 0 157.97 0C144.146 0 132.939 11.1852 132.939 24.9828C132.939 38.7804 144.146 49.9655 157.97 49.9655Z" fill="#E6E6E6"/>
<path d="M157.97 45.8017C169.49 45.8017 178.828 36.4807 178.828 24.9827C178.828 13.4848 169.49 4.16379 157.97 4.16379C146.45 4.16379 137.111 13.4848 137.111 24.9827C137.111 36.4807 146.45 45.8017 157.97 45.8017Z" fill="white"/>
<path d="M23.0958 33.5366L17.019 25.7385L20.5528 22.9949L23.4301 26.6874L33.1501 16.4465L36.4003 19.52L23.0958 33.5366Z" fill="white"/>
<path d="M69.3838 30.077C67.74 26.1144 67.4731 22.3745 69.7904 19.0525C69.8316 17.9362 70.0969 16.8396 70.5708 15.8276C71.0446 14.8157 71.7172 13.909 72.5487 13.1614C73.3802 12.4137 74.3537 11.8404 75.4114 11.4754C76.4691 11.1104 77.5894 10.9611 78.706 11.0364L80.2169 11.1383C81.7767 11.2394 83.2764 11.7767 84.5445 12.6888C85.8127 13.6009 86.7979 14.8508 87.3876 16.2956C90.2049 23.2697 90.2936 32.5387 89.5905 42.4736H68.9266C70.1539 37.8274 70.784 33.4668 69.3838 30.077Z" fill="#2F2E41"/>
<path d="M42.6987 42.2349L37.2381 39.7866C36.694 39.5427 36.2088 39.1848 35.8154 38.7374C35.422 38.2899 35.1295 37.7632 34.9579 37.1931C34.7863 36.6229 34.7395 36.0226 34.8206 35.4328C34.9018 34.843 35.109 34.2775 35.4283 33.7746C35.7814 33.2185 36.2619 32.7542 36.8301 32.4199C37.3984 32.0855 38.0381 31.8909 38.6966 31.8518C39.355 31.8128 40.0134 31.9306 40.6173 32.1954C41.2212 32.4603 41.7533 32.8646 42.1699 33.3751L44.6926 36.4668L56.4539 46.878L64.272 41.6706L67.8153 47.6666L55.1332 55.3127L42.6987 42.2349Z" fill="#9F616A"/>
<path d="M67.2458 49.4304L62.9347 41.1967L79.7219 33.7336L79.8672 35.3085C80.001 36.7578 79.7529 38.2167 79.1476 39.5408C78.5423 40.8649 77.6008 42.008 76.4164 42.857L67.2458 49.4304Z" fill="#005FD8"/>
<path d="M89.0001 33.2417L71.8786 47.3842L70.8946 46.0092L75.6178 37.563L77.7826 36.5809C78.3012 34.3876 76.9771 31.4464 75.2242 28.3311L83.4897 27.1525C83.8887 29.8282 85.7054 31.8669 89.0001 33.2417Z" fill="#9F616A"/>
<path d="M109.664 130.864L106.81 135.087L84.0801 122.222L87.2289 106.704L109.664 130.864Z" fill="#2F2E41"/>
<path d="M79.6522 150.998L75.0274 148.935L73.8466 94.9188L69.4186 65.5534L86.6385 62.3124L90.1809 69.9729C98.8861 81.8897 86.1958 118.403 79.6522 150.998Z" fill="#2F2E41"/>
<path d="M80.025 150.264L80.9739 152.325C81.1522 152.713 81.2375 153.136 81.2228 153.562C81.2082 153.988 81.0942 154.405 80.8898 154.779C80.6853 155.154 80.3962 155.475 80.0454 155.718C79.6945 155.961 79.2916 156.119 78.8689 156.179L66.323 157.968C65.7062 158.056 65.0783 157.918 64.5555 157.58C64.0327 157.241 63.6504 156.726 63.4792 156.128C63.3216 155.577 63.3524 154.99 63.5668 154.459C63.7812 153.928 64.1669 153.483 64.6629 153.196L75.2027 147.93L80.025 150.264Z" fill="#2F2E41"/>
<path d="M109.077 130.066L111.343 129.9C111.769 129.869 112.197 129.938 112.591 130.1C112.986 130.263 113.337 130.515 113.617 130.837C113.897 131.16 114.097 131.542 114.203 131.955C114.308 132.369 114.316 132.801 114.224 133.217L111.514 145.573C111.381 146.181 111.032 146.72 110.531 147.09C110.031 147.461 109.413 147.638 108.791 147.588C108.22 147.543 107.679 147.309 107.256 146.923C106.832 146.536 106.55 146.02 106.454 145.456L105.199 133.759L109.077 130.066Z" fill="#2F2E41"/>
<path d="M78.1761 31.081C82.5237 31.081 86.0481 27.5633 86.0481 23.224C86.0481 18.8847 82.5237 15.3671 78.1761 15.3671C73.8286 15.3671 70.3042 18.8847 70.3042 23.224C70.3042 27.5633 73.8286 31.081 78.1761 31.081Z" fill="#9F616A"/>
<path d="M86.2449 63.4909L69.1234 67.0266L68.7298 55.634C66.2506 53.0142 72.0328 42.5219 74.0434 37.563L76.6018 36.7773L72.2722 44.6342L87.4257 32.2595L90.3777 33.0452L91.1649 47.3842L86.2449 63.4909Z" fill="#005FD8"/>
<path d="M87.4257 70.3658L83.7127 75.0526C83.3428 75.5196 82.8766 75.9017 82.3457 76.1731C81.8148 76.4446 81.2317 76.5989 80.6358 76.6257C80.04 76.6525 79.4453 76.5511 78.8921 76.3284C78.3389 76.1058 77.8402 75.767 77.4297 75.3351C76.9757 74.8575 76.6419 74.279 76.456 73.6474C76.27 73.0157 76.2372 72.349 76.3602 71.7021C76.4832 71.0553 76.7584 70.4469 77.1633 69.9272C77.5682 69.4074 78.0911 68.9912 78.6888 68.7128L82.3089 67.0266L95.2976 58.1875L92.1489 49.3484L98.84 47.3842L103.17 61.5267L87.4257 70.3658Z" fill="#9F616A"/>
<path d="M88.1142 40.9022H73.8523C74.3881 38.2116 75.8248 35.7706 79.7538 34.0204C82.6186 28.5553 83.8426 23.5983 79.7538 20.2862C75.0833 19.2123 73.2745 17.2622 73.8523 14.5814L82.2127 13.2064C89.0883 19.3181 89.1668 29.7506 88.1142 40.9022Z" fill="#2F2E41"/>
<path d="M100.414 48.3663L91.3617 50.527L88.2129 32.456L89.7785 32.7001C91.2192 32.9248 92.576 33.5214 93.7145 34.4308C94.853 35.3401 95.7335 36.5307 96.2689 37.8844L100.414 48.3663Z" fill="#005FD8"/>
</g>
<defs>
<clipPath id="clip0">
<rect width="183" height="159" fill="white"/>
</clipPath>
</defs>
</svg>
